<?xml version="1.0" standalone="no"?>
<!DOCTYPE svg PUBLIC "-//W3C//DTD SVG 1.1//EN" "http://www.w3.org/Graphics/SVG/1.1/DTD/svg11.dtd" >
<svg>
<metadata>
Created by FontForge 20090914 at Mon Jun 17 03:50:45 2013
 By www-data
Copyright (C) 2012 by original authors @ fontello.com
</metadata>
<defs>
<font id="fontello-Medium" horiz-adv-x="979" >
  <font-face 
    font-family="fontello Medium"
    font-weight="400"
    font-stretch="normal"
    units-per-em="1000"
    panose-1="0 0 5 0 0 0 0 0 0 0"
    ascent="850"
    descent="-150"
    bbox="13.998 -150.089 1019 852.002"
    underline-thickness="0"
    underline-position="0"
    unicode-range="U+000D-U+F6AB"
  />
<missing-glyph horiz-adv-x="364" 
d="M33 666v-666h265v666h-265zM265 33h-199v600h199v-600z" />
    <glyph glyph-name=".notdef" horiz-adv-x="364" 
d="M33 666v-666h265v666h-265zM265 33h-199v600h199v-600z" />
    <glyph glyph-name="uni0000" horiz-adv-x="0" 
 />
    <glyph glyph-name="uni0000" horiz-adv-x="0" 
 />
    <glyph glyph-name="uni000D" unicode="&#xd;" horiz-adv-x="333" 
 />
    <glyph glyph-name="space" unicode=" " horiz-adv-x="250" 
 />
    <glyph glyph-name="plus" unicode="+" horiz-adv-x="610" 
d="M305 640c-33.333 0 -50 -10 -50 -30v-210h-210c-20 0 -30 -16.667 -30 -50s10 -50 30 -50h210v-210c0 -20 16.667 -30 50 -30s50 10 50 30v210h210c20 0 30 16.667 30 50s-10 50 -30 50h-210v210c0 20 -16.667 30 -50 30z" />
    <glyph glyph-name="hyphen" unicode="-" horiz-adv-x="610" 
d="M15 350c0 -33.333 10 -50 30 -50h520c20 0 30 16.667 30 50s-10 50 -30 50h-520c-20 0 -30 -16.667 -30 -50z" />
    <glyph glyph-name="uni2139" unicode="&#x2139;" horiz-adv-x="490" 
d="M297 832c-20 -12 -35.333 -27.499 -46 -46.499s-16 -38.833 -16 -59.5c-1.33301 -31.333 6.66699 -55.5 24 -72.5s42 -25.5 74 -25.5c23.333 0 45.333 5.83301 66 17.5s37.167 27.167 49.5 46.5s18.5 40 18.5 62c0 29.333 -9 52.666 -27 69.999s-42.333 26 -73 26
c-26.667 0 -50 -6 -70 -18zM92 -66.999c0 -55.333 23 -83 69 -83c22 0 50.833 7.16699 86.5 21.5s73.667 34.833 114 61.5s78.166 58.334 113.499 95.001l-30 40c-48.667 -40 -88 -60 -118 -60c-8.66699 0 -13 7 -13 21c0 12 2.33301 26.333 7 43l70 266
c10 38 15 69.333 15 94c0 45.333 -17 68 -51 68c-23.333 0 -54.166 -7.33301 -92.499 -22s-79.5 -35.334 -123.5 -62.001s-85.333 -56.667 -124 -90l26 -44c20.667 13.333 44.667 26 72 38s45.333 18 54 18c4.66699 0 7 -4.66699 7 -14c0 -10 -2.33301 -24 -7 -42l-60 -254
c-10 -38 -15 -69.667 -15 -95z" />
    <glyph glyph-name="arrowleft" unicode="&#x2190;" horiz-adv-x="1010" 
d="M995 440h-740v160l-240 -250l240 -250v162h740v178z" />
    <glyph glyph-name="arrowup" unicode="&#x2191;" horiz-adv-x="530" 
d="M177 602v-742h176v742h162l-250 238l-250 -238h162z" />
    <glyph glyph-name="arrowright" unicode="&#x2192;" horiz-adv-x="1010" 
d="M757 440h-742v-178h742v-162l238 250l-238 250v-160z" />
    <glyph glyph-name="arrowdown" unicode="&#x2193;" horiz-adv-x="530" 
d="M177 840v-740h-162l250 -240l250 240h-162v740h-176z" />
    <glyph glyph-name="uni21B0" unicode="&#x21b0;" horiz-adv-x="880" 
d="M865 110v280c0 27.333 -9.83301 50.833 -29.5 70.5s-43.167 29.5 -70.5 29.5h-550v100l-200 -170l200 -160v90h510v-240h140z" />
    <glyph glyph-name="uni21B3" unicode="&#x21b3;" horiz-adv-x="774" 
d="M759 270l-240 220v-150h-364v310h-140v-350c0 -27.333 9.83301 -50.833 29.5 -70.5s43.167 -29.5 70.5 -29.5h404v-150z" />
    <glyph glyph-name="uni21C6" unicode="&#x21c6;" horiz-adv-x="1030" 
d="M215 692l-200 -170l200 -160v90h500v140h-500v100zM315 242v-140h500v-90l200 160l-200 170v-100h-500z" />
    <glyph glyph-name="infinity" unicode="&#x221e;" horiz-adv-x="1030" 
d="M381.5 530c-51.667 26.667 -105.169 40 -160.502 40c-60 0 -109.333 -18.5 -148 -55.5s-58 -91.833 -58 -164.5c0 -71.333 19.167 -125.833 57.5 -163.5s87.833 -56.5 148.5 -56.5c54 0 107 13.667 159 41s97 62.333 135 105c40 -44 85.667 -79.333 137 -106
s104.333 -40 159 -40c38.667 0 73.334 8.16699 104.001 24.5s55 41 73 74s27 73.5 27 121.5c0 72 -19.167 126.667 -57.5 164s-87.166 56 -146.499 56c-55.333 0 -109 -13.333 -161 -40s-97 -61.334 -135 -104.001c-37.333 42.667 -81.833 77.334 -133.5 104.001z
M351.498 256c-43.667 -25.333 -87.167 -38.001 -130.5 -38.001c-76 0 -114 44 -114 132s38 132 114 132c44 0 87.5 -12.5 130.5 -37.5s79.5 -56.5 109.5 -94.5c-29.333 -37.333 -65.833 -68.666 -109.5 -93.999zM678.998 255.999c-44 25.333 -80 56.668 -108 94.001
c28 37.333 64 68.666 108 93.999s88 38 132 38c76 0 114 -44 114 -132s-38 -132 -114 -132c-44 0 -88 12.667 -132 38z" />
    <glyph glyph-name="uni229E" unicode="&#x229e;" horiz-adv-x="830" 
d="M44.5 720.5c-19.667 -19.667 -29.5 -43.167 -29.5 -70.5v-600c0 -26.667 10 -50 30 -70s43.333 -30 70 -30h600c27.333 0 50.833 9.83301 70.5 29.5s29.5 43.167 29.5 70.5v600c0 28 -9.66699 51.667 -29 71s-43 29 -71 29h-600c-27.333 0 -50.833 -9.83301 -70.5 -29.5z
M365 100v200h-200v100h200v200h100v-200h200v-100h-200v-200h-100z" />
    <glyph glyph-name="uni229F" unicode="&#x229f;" horiz-adv-x="830" 
d="M44.5 720.5c-19.667 -19.667 -29.5 -43.167 -29.5 -70.5v-600c0 -26.667 10 -50 30 -70s43.333 -30 70 -30h600c27.333 0 50.833 9.83301 70.5 29.5s29.5 43.167 29.5 70.5v600c0 28 -9.66699 51.667 -29 71s-43 29 -71 29h-600c-27.333 0 -50.833 -9.83301 -70.5 -29.5z
M665 400v-100h-500v100h500z" />
    <glyph glyph-name="house" unicode="&#x2302;" horiz-adv-x="930" 
d="M465 754c-14.667 0 -27.333 -5.33301 -38 -16l-400 -402c-8 -8 -12 -15.333 -12 -22c0 -10.667 9.33301 -16 28 -16h84v-310c0 -16 2.83301 -26.667 8.5 -32s16.834 -8 33.501 -8h194v310h204v-310h204c13.333 0 22 2.83301 26 8.5s6 16.167 6 31.5v310h84
c18.667 0 28 5.33301 28 16c0 6.66699 -4 14 -12 22l-400 402c-10.667 10.667 -23.334 16 -38.001 16z" />
    <glyph glyph-name="uni2328" unicode="&#x2328;" horiz-adv-x="1030" 
d="M36 629c-14 -14 -21 -30.333 -21 -49v-460c0 -19.333 6.83301 -35.833 20.5 -49.5s30.167 -20.5 49.5 -20.5h860c19.333 0 35.833 6.83301 49.5 20.5s20.5 30.167 20.5 49.5v460c0 18.667 -7 35 -21 49s-30.333 21 -49 21h-860c-18.667 0 -35 -7 -49 -21zM215 450h-100
v100h100v-100zM365 450h-100v100h100v-100zM515 450h-100v100h100v-100zM665 450h-100v100h100v-100zM915 550v-100h-200v100h200zM165 300v100h100v-100h-100zM315 300v100h100v-100h-100zM465 300v100h100v-100h-100zM615 300v100h100v-100h-100zM865 400v-100h-100v100
h100zM115 250h100v-100h-100v100zM265 250h500v-100h-500v100zM815 250h100v-100h-100v100z" />
    <glyph glyph-name="uni232B" unicode="&#x232b;" horiz-adv-x="1032" 
d="M369 674l-340.001 -296.001c-9.33301 -9.33301 -14 -18.666 -14 -27.999c0 -8 4.66699 -16.667 14 -26l340 -296c20.667 -18.667 44 -28 70 -28h478c27.333 -0 50.833 9.83301 70.5 29.5s29.5 43.167 29.5 70.5v500c0 28 -9.66699 51.667 -29 71s-43 29 -71 29h-478
c-25.333 0 -48.666 -8.66699 -69.999 -26zM448.999 223.999l128 126l-128 128l72 72l128 -126l128 126l72 -72l-128 -128l128 -126l-72 -74l-128 128l-128 -128z" />
    <glyph glyph-name="uni2389" unicode="&#x2389;" horiz-adv-x="560" 
d="M105 0c60 0 90 22 90 66v570c0 42.667 -30 64 -90 64s-90 -21.333 -90 -64v-570c0 -44 30 -66 90 -66zM455 700c-60 0 -90 -21.333 -90 -64v-570c0 -44 30 -66 90 -66s90 22 90 66v570c0 42.667 -30 64 -90 64z" />
    <glyph glyph-name="uni23E9" unicode="&#x23e9;" horiz-adv-x="910" 
d="M43 631c-8.66699 0 -15.5 -3.49902 -20.5 -10.499s-7.5 -16.5 -7.5 -28.5v-482c0 -12 2.5 -21.5 7.5 -28.5s11.833 -10.5 20.5 -10.5c7.33301 0 15.333 3 24 9l360 248c9.33301 5.33301 14 12.666 14 21.999c0 8.66699 -4.66699 16.667 -14 24l-360 248
c-9.33301 6 -17.333 9 -24 9zM483 631.001c-17.333 0 -26 -12.999 -26 -38.999v-482c0 -26 8.66699 -39 26 -39c7.33301 0 16 3 26 9l372 248c9.33301 5.33301 14 12.666 14 21.999c0 8.66699 -4.66699 16.667 -14 24l-372 248c-10 6 -18.667 9 -26 9z" />
    <glyph glyph-name="uni23EA" unicode="&#x23ea;" horiz-adv-x="910" 
d="M15 350c0 -9.33301 4.66699 -16.667 14 -22l374 -248c8.66699 -6 16.667 -9 24 -9c8.66699 0 15.5 3.5 20.5 10.5s7.5 16.5 7.5 28.5v482c0 12 -2.5 21.5 -7.5 28.5s-11.833 10.5 -20.5 10.5c-7.33301 0 -15.333 -3 -24 -9l-374 -248
c-9.33301 -7.33301 -14 -15.333 -14 -24zM469 349.999c0 -9.33301 4.66699 -16.667 14 -22l360 -248c9.33301 -6 17.333 -9 24 -9c8.66699 0 15.5 3.5 20.5 10.5s7.5 16.5 7.5 28.5v482c0 12 -2.5 21.5 -7.5 28.5s-11.833 10.5 -20.5 10.5c-6.66699 0 -14.667 -3 -24 -9
l-360 -248c-9.33301 -7.33301 -14 -15.333 -14 -24z" />
    <glyph glyph-name="uni23ED" unicode="&#x23ed;" horiz-adv-x="630" 
d="M541 642c-50.667 0 -76 -19.333 -76 -58v-466c0 -38.667 25.333 -58 76 -58c49.333 0 74 19.333 74 58v466c0 38.667 -24.667 58 -74 58zM41 610c-17.333 0 -26 -12.666 -26 -37.999v-442c0 -25.333 8.66699 -38 26 -38c8 0 16 2.66699 24 8l362 228
c9.33301 7.33301 14 14.666 14 21.999c0 8.66699 -4.66699 16.667 -14 24l-362 228c-8 5.33301 -16 8 -24 8z" />
    <glyph glyph-name="uni23EE" unicode="&#x23ee;" horiz-adv-x="630" 
d="M91 60c49.333 0 74 19.333 74 58v466c0 38.667 -24.667 58 -74 58c-50.667 0 -76 -19.333 -76 -58v-466c0 -38.667 25.333 -58 76 -58zM189 350c0 -7.33301 4.66699 -14.667 14 -22l364 -228c8 -5.33301 15.667 -8 23 -8c16.667 0 25 12.667 25 38v442
c0 25.333 -8.33301 38 -25 38c-7.33301 0 -15 -2.66699 -23 -8l-364 -228c-9.33301 -7.33301 -14 -15.333 -14 -24z" />
    <glyph glyph-name="uni23F3" unicode="&#x23f3;" horiz-adv-x="590" 
d="M554 140.5c-14 21.667 -30.001 41.666 -48.001 59.999s-43.333 42.833 -76 73.5s-49 56 -49 76c0 20.667 16.333 46.334 49 77.001c28.667 26.667 61 59.667 97 99c32 35.333 48 67.333 48 96v118c0 21.333 -29 45 -87 71s-122.333 39 -193 39s-135 -13 -193 -39
s-87 -49.667 -87 -71v-118c0 -26 13.167 -54.667 39.5 -86s61.5 -67.666 105.5 -108.999c32.667 -30.667 49 -56.334 49 -77.001c0 -20 -16.333 -45.333 -49 -76s-58 -55.167 -76 -73.5s-34 -38.333 -48 -60s-21 -41.834 -21 -60.501v-118c0 -22.667 28.667 -47 86 -73
s122 -39 194 -39c72.667 0 137.334 13 194.001 39c57.333 26 86 50.333 86 73v118c0 18.667 -7 38.834 -21 60.501zM296.999 787.999c70.667 0 137.998 -18 201.998 -54c13.333 -8.66699 20 -16 20 -22c0 -3.33301 -1.33301 -6 -4 -8
c-59.333 -33.333 -132.666 -50 -219.999 -50c-83.333 0 -155.333 17.333 -216 52c-5.33301 5.33301 -6.66602 10 -3.99902 14l18 14c56 36 124 54 204 54zM422.997 499.999l-28.998 -27.998c-26 -25.333 -44.667 -46.333 -56 -63s-17 -36.334 -17 -59.001
c0 -31.333 13.667 -60.666 41 -87.999l33 -32l28 -28c61.333 -61.333 92 -102 92 -122v-66c-4 2.66699 -26.333 10.334 -67 23.001c-43.333 14 -75.333 28.833 -96 44.5s-31 34.5 -31 56.5c0 20 -8.66699 30 -26 30s-26 -10 -26 -30c0 -40 -42 -73.667 -126 -101l-66 -23v66
c0 21.333 30 62 90 122l35 32l31 31l12 15c2.66699 2.66699 7.66699 11.667 15 27s11 29.666 11 42.999c2 0 3.66699 0.666992 5 2c1.33301 2.66699 -3.66699 13.667 -15 33c-4.66699 8.66699 -5.33398 12.667 -2.00098 12c2 0 2 2 0 6l-22 28
c-3.33301 3.33301 -5.33301 5.66602 -6 6.99902l-19 19l-22 21c-14.667 13.333 -22.334 20.666 -23.001 21.999c-60 60 -90 100.667 -90 122l-4 50c67.333 -36 141.333 -54 222 -54c81.333 0 155.333 18 222 54l-2 -50c0 -20 -30.667 -60.667 -92 -122z" />
    <glyph glyph-name="filledbox" unicode="&#x25a0;" horiz-adv-x="630" 
d="M32.5 635.5c-11.667 -9.66699 -17.5 -26.167 -17.5 -49.5v-470c0 -44 25.333 -66 76 -66h450c49.333 0 74 22 74 66v470c0 42.667 -24.667 64 -74 64h-450c-27.333 0 -46.833 -4.83301 -58.5 -14.5z" />
    <glyph glyph-name="H18543" unicode="&#x25aa;" horiz-adv-x="821" 
d="M26.5 -34.5c7 -7 15.5 -10.5 25.5 -10.5h718c9.33301 0 17.666 3.5 24.999 10.5s11 15.5 11 25.5v718c0 10 -3.66699 18.5 -11 25.5s-15.666 10.5 -24.999 10.5h-718c-10 0 -18.5 -3.5 -25.5 -10.5s-10.5 -15.5 -10.5 -25.5v-718c0 -10 3.5 -18.5 10.5 -25.5z" />
    <glyph glyph-name="blackuppointingsmalltriangle" unicode="&#x25b4;" horiz-adv-x="490" 
d="M15 150h460l-230 400z" />
    <glyph glyph-name="blackrightpointingtriangle" unicode="&#x25b6;" horiz-adv-x="530" 
d="M46 651c-9.33301 0 -16.833 -3.83301 -22.5 -11.5s-8.5 -18.167 -8.5 -31.5v-514c0 -13.333 2.83301 -23.833 8.5 -31.5s13.167 -11.5 22.5 -11.5c8 0 17 3 27 9l428 266c9.33301 7.33301 14 15.333 14 24c0 10 -4.66699 18.667 -14 26l-428 266c-10 6 -19 9 -27 9z" />
    <glyph glyph-name="uni25B8" unicode="&#x25b8;" horiz-adv-x="430" 
d="M15 580v-460l400 230z" />
    <glyph glyph-name="uni25BE" unicode="&#x25be;" horiz-adv-x="490" 
d="M475 550h-460l230 -400z" />
    <glyph glyph-name="uni25C2" unicode="&#x25c2;" horiz-adv-x="430" 
d="M415 580l-400 -230l400 -230v460z" />
    <glyph glyph-name="circlewithrighthalfblack" unicode="&#x25d1;" horiz-adv-x="1030" 
d="M486.5 715.5c7.66699 -10.333 17.167 -15.5 28.5 -15.5s21 5.33301 29 16c7.33301 10.667 11 22 11 34v50c0 12.667 -3.83301 24.167 -11.5 34.5s-17.167 15.5 -28.5 15.5s-20.833 -5.16699 -28.5 -15.5s-11.5 -21.833 -11.5 -34.5v-50
c0 -12.667 3.83301 -24.167 11.5 -34.5zM903 698c0 9.33301 -4.00098 18 -12.001 26c-7.33301 7.33301 -15.666 11 -24.999 11c-14 0 -28 -6.33301 -42 -19s-24.333 -24 -31 -34c-13.333 -13.333 -20 -26 -20 -38c0 -9.33301 4 -18 12 -26
c9.33301 -7.33301 18.333 -11 27 -11c12 0 24.333 6.33301 37 19l34 34c13.333 13.333 20 26 20 38zM165.999 734c-10 0 -18.334 -3.33398 -25.001 -10.001c-6.66699 -7.33301 -10 -16.666 -10 -27.999c0 -13.333 5.33301 -25.333 16 -36
c6.66699 -5.33301 18.667 -16.666 36 -33.999c10.667 -10.667 23.334 -16 38.001 -16c10 0 18 2.66699 24 8c9.33301 9.33301 14 18.333 14 27c0 11.333 -6.66699 23.666 -20 36.999l-36 36c-10.667 10.667 -23 16 -37 16zM514.998 623.999c-50 0 -96 -12.167 -138 -36.5
s-75.167 -57.5 -99.5 -99.5s-36.5 -88 -36.5 -138c0 -50.667 12.167 -97.167 36.5 -139.5s57.5 -75.666 99.5 -99.999s88 -36.5 138 -36.5s96 12.167 138 36.5s75.5 57.666 100.5 99.999s37.5 88.833 37.5 139.5c0 76 -27 140.667 -81 194
c-55.333 53.333 -120.333 80 -195 80zM417.998 176.499c-31.333 17.667 -56.3359 41.832 -75.0029 72.499s-28 64.334 -28 101.001c0 36 9.33301 69.333 28 100s43.834 55 75.501 73s65.834 27 102.501 27v-400c-37.333 0 -71.666 8.83301 -102.999 26.5zM30.4951 378.497
c-10.333 -7.66699 -15.5 -17.167 -15.5 -28.5c0 -26.667 16.667 -40 50 -40h50c33.333 0 50 13.333 50 40c0 11.333 -5.16699 20.833 -15.5 28.5s-21.833 11.5 -34.5 11.5h-50c-12.667 0 -24.167 -3.83301 -34.5 -11.5zM882.495 378.497
c-10.333 -7.66699 -15.5 -17.167 -15.5 -28.5c0 -26.667 16.667 -40 50 -40h48c33.333 0 50 13.333 50 40c0 11.333 -5.16699 20.833 -15.5 28.5s-21.833 11.5 -34.5 11.5h-48c-12.667 0 -24.167 -3.83301 -34.5 -11.5zM819.995 88.9971
c-2 0.666992 -4.99805 1.00098 -8.99805 1.00098c-10.667 0 -19.334 -3.33301 -26.001 -10s-10 -15.334 -10 -26.001c0 -13.333 6 -26 18 -38c5.33301 -6.66699 16.666 -18.667 33.999 -36c8.66699 -8.66699 18 -14 28 -16c2 -0.666992 5 -1 9 -1
c10.667 0 19.5 3.5 26.5 10.5s10.5 15.833 10.5 26.5c0 13.333 -6 26 -18 38l-34 34c-9.33301 9.33301 -19 15 -29 17zM254.997 51.998c0 11.333 -3.33301 20.665 -10 27.998c-7.33301 6.66699 -16 10 -26 10c-13.333 0 -25.333 -6 -36 -18
c-17.333 -17.333 -29.333 -28.666 -36 -33.999c-13.333 -13.333 -20 -25.666 -20 -36.999c0 -8.66699 4.66699 -17.667 14 -27c6.66699 -6.66699 15 -10 25 -10c14 0 26.333 5.33301 37 16l36 36c10.667 10.667 16 22.667 16 36zM543.497 -15.5029
c-7.66699 10.333 -17.168 15.5 -28.501 15.5s-20.666 -5 -27.999 -15c-8 -11.333 -12 -23 -12 -35v-50c0 -12.667 3.83301 -24.167 11.5 -34.5s17.167 -15.5 28.5 -15.5s20.833 5.16699 28.5 15.5s11.5 21.833 11.5 34.5v50c0 12.667 -3.83301 24.167 -11.5 34.5z" />
    <glyph glyph-name="uni2601" unicode="&#x2601;" horiz-adv-x="1030" 
d="M895 57c36.667 20.667 65.835 48.833 87.502 84.5s32.5 75.167 32.5 118.5s-10.833 82.833 -32.5 118.5s-50.834 63.834 -87.501 84.501s-76.667 31 -120 31c-11.333 0 -24.666 -1.33301 -39.999 -4c-10.667 35.333 -28.167 67 -52.5 95s-54 50.167 -89 66.5
s-72.5 24.5 -112.5 24.5c-48.667 0 -93.334 -11.667 -134.001 -35s-72.834 -54.833 -96.501 -94.5s-35.5 -83.167 -35.5 -130.5c0 -10.667 0.666992 -23.334 2 -38.001l-10 1l-10 1c-32.667 0 -63 -8 -91 -24s-50.167 -37.5 -66.5 -64.5s-24.5 -56.833 -24.5 -89.5
c0 -31.333 8.33301 -60.5 25 -87.5s39 -48.5 67 -64.5s58 -24 90 -24h578c43.333 0 83.333 10.333 120 31z" />
    <glyph glyph-name="uni2602" unicode="&#x2602;" horiz-adv-x="1001" 
d="M255 638c-62.667 -30.667 -114.833 -70.832 -156.5 -120.499s-69.167 -105.167 -82.5 -166.5l-1 -5c0 -5.33301 2 -10 6 -14s9 -6 15 -6s11.667 2 17 6c32 35.333 69 53 111 53c63.333 0 113.666 -35.667 150.999 -107c3.33301 -7.33301 9 -11 17 -11s14 3.66699 18 11
c28.667 52 65 85.333 109 100v-270c0 -22.667 -6.66699 -42.834 -20 -60.501s-29.666 -26.5 -48.999 -26.5c-20 0 -36.833 8.5 -50.5 25.5s-20.5 37.5 -20.5 61.5c0 12 -3.83301 21.833 -11.5 29.5s-17.5 11.5 -29.5 11.5c-11.333 0 -21 -4 -29 -12s-12 -17.667 -12 -29
c0 -25.333 4.33301 -47 13 -65c12 -32 30 -57.333 54 -76s52.667 -28 86 -28c22 0 41.667 4.33301 59 13c28 12.667 50.333 33 67 61s25 59.667 25 95v270c44.667 -14 81.334 -47.333 110.001 -100c3.33301 -7.33301 9.66602 -11 18.999 -11c8 0 14 3.66699 18 11
c37.333 71.333 87.333 107 150 107c41.333 0 79 -17.667 113 -53c3.33301 -4 8 -6 14 -6c6.66699 0 12 2.66699 16 8s5.33301 11 4 17c-11.333 47.333 -30 91 -56 131c-40.667 60 -94.5 108.5 -161.5 145.5s-142.5 58.5 -226.5 64.5v28c0 12 -3.83301 21.833 -11.5 29.5
s-17.5 11.5 -29.5 11.5s-21.833 -3.83301 -29.5 -11.5s-11.5 -17.5 -11.5 -29.5v-28c-73.333 -5.33301 -141.333 -23.333 -204 -54z" />
    <glyph glyph-name="uni2605" unicode="&#x2605;" horiz-adv-x="910" 
d="M277 258l-94 -348l272 208l272 -208l-94 348l262 196h-320l-120 336l-120 -336h-320z" />
    <glyph glyph-name="uni2606" unicode="&#x2606;" horiz-adv-x="910" 
d="M455 790l-120 -336h-320l262 -196l-94 -348l272 208l272 -208l-94 348l262 196h-320zM225 384l176 -4l54 202l56 -202l176 4l-144 -114l62 -178l-150 124l-150 -124l62 178z" />
    <glyph glyph-name="uni2611" unicode="&#x2611;" 
d="M132.5 71.5c-11.667 11.667 -17.498 25.498 -17.498 41.498v474c0 16 5.83301 29.833 17.5 41.5s25.5 17.5 41.5 17.5h483l96 96c-9.33301 2 -18 3 -26 3h-553c-22.667 0 -43 -4.33301 -61 -13c-29.333 -12.667 -52.833 -31.667 -70.5 -57s-26.5 -54.666 -26.5 -87.999
v-474c0 -21.333 4 -41.666 12 -60.999c13.333 -29.333 32.666 -52.833 57.999 -70.5s54.666 -26.5 87.999 -26.5h553c22.667 0 43 4.33301 61 13c29.333 13.333 52.833 32.5 70.5 57.5s26.5 54.167 26.5 87.5v266l-99 -98v-168c0 -16 -6 -29.833 -18 -41.5
s-25.667 -17.5 -41 -17.5h-553c-16 0 -29.833 5.83301 -41.5 17.5zM479.002 169.998c8 -8 17.666 -12 28.999 -12c10.667 0 20 4 28 12l416 416c7.33301 7.33301 11 16.666 11 27.999c0 10.667 -3.66699 20.334 -11 29.001l-51 50c-6.66699 8 -16 12 -28 12s-22 -4 -30 -12
l-335 -337l-175 175c-8 8 -17.667 12 -29 12s-20.666 -4 -27.999 -12l-51 -50c-7.33301 -8.66699 -11 -18.334 -11 -29.001c0 -11.333 3.66699 -20.666 11 -27.999l81 -80l93 -94z" />
    <glyph glyph-name="uni2615" unicode="&#x2615;" horiz-adv-x="711" 
d="M604 719c-66.667 27.333 -149.666 41 -248.999 41c-61.333 0 -119.833 -6.33301 -175.5 -19s-98.5 -30 -128.5 -52c-26.667 -18.667 -38.667 -37.667 -36 -57l72 -594c1.33301 -9.33301 13 -21.333 35 -36c26.667 -17.333 62.167 -32 106.5 -44s86.5 -18 126.5 -18
c40.667 0 83.667 6.16699 129 18.5s80.333 26.833 105 43.5c21.333 14.667 32.666 26.667 33.999 36l72 594c4 31.333 -26.333 60.333 -91 87zM120.001 592c-22 12 -33 21.999 -33 29.999c0 8.66699 11 18.334 33 29.001c26 13.333 61.333 24.5 106 33.5
s87.667 13.5 129 13.5s84.333 -4.5 129 -13.5s80 -20.167 106 -33.5c22 -10.667 33 -20.334 33 -29.001c0 -8 -11 -18 -33 -30c-25.333 -13.333 -60.5 -24.666 -105.5 -33.999s-88.167 -14 -129.5 -14c-39.333 0 -82.333 4.66699 -129 14c-44 8.66699 -79.333 20 -106 34z
" />
    <glyph glyph-name="uni261C" unicode="&#x261c;" horiz-adv-x="1017" 
d="M261 203c-1.33301 -10.667 -2 -19 -2 -25c0 -32 11.667 -61.667 35 -89c0 -25.333 5 -48 15 -68c28.667 -54.667 83 -82 163 -82c38.667 0 87.334 9 146.001 27c63.333 18 106.666 27 129.999 27h192c17.333 0 31.833 6 43.5 18s17.5 26.333 17.5 43v331
c0 16.667 -5.83301 31 -17.5 43s-26.167 18 -43.5 18h-179c-14 6.66699 -27 18.667 -39 36c-24 30.667 -48.333 55.334 -73 74.001c-30.667 23.333 -47.334 53.333 -50.001 90c-2.66699 26 -5.66699 46 -9 60c-10.667 36.667 -36.667 55 -78 55
c-21.333 0 -40.333 -4.33301 -57 -13c-24.667 -12 -44.5 -31 -59.5 -57s-22.5 -55 -22.5 -87c0 -30.667 9 -65.334 27 -104.001h-68l-194 -2c-18 0 -34 -2.66699 -48 -8c-22.667 -10 -40.667 -24.667 -54 -44s-20 -42.333 -20 -69c0 -16 3 -31.667 9 -47
c20.667 -48.667 58.334 -73 113.001 -73h103c3.33301 -20.667 10 -38.667 20 -54zM612 28c-64 -18 -110.67 -27.002 -140.003 -27.002c-77.333 0 -116 29.333 -116 88l2 26c-24.667 12 -37 33.667 -37 65c0 14 3.66699 25.667 11 35c-20.667 16.667 -31 37.667 -31 63
c0 13.333 6.66699 26.666 20 39.999c-33.333 0 -63.666 0.333008 -90.999 1h-92c-17.333 0 -31.666 5.33301 -42.999 16s-17 24.667 -17 42c0 18 5.5 32.5 16.5 43.5s25.5 16.5 43.5 16.5c65.333 0 123.666 0.333008 174.999 1h173c0 12.667 -1.66699 23.834 -5 33.501
s-9.66602 23.5 -18.999 41.5c-18 34 -27 64.333 -27 91c0 8.66699 1.66699 19.667 5 33c13.333 42 37.333 63 72 63h6c4.66699 0 8 -2 10 -6l8 -41c6.66699 -42 15.334 -71.667 26.001 -89c9.33301 -16 27 -36 53 -60c19.333 -17.333 36 -34.666 50 -51.999
c8.66699 -11.333 16.667 -20.666 24 -27.999c18 -18 37.667 -31 59 -39h2v-331c-26.667 0 -72.667 -8.66699 -138 -26zM839.997 137.998c11.333 0 21 -4 29 -12s12 -17.667 12 -29s-4 -21 -12 -29s-17.667 -12 -29 -12s-21 4 -29 12s-12 17.667 -12 29s4 21 12 29
s17.667 12 29 12z" />
    <glyph glyph-name="uni261D" unicode="&#x261d;" horiz-adv-x="852" 
d="M765.5 -125c11.667 12 17.5 26.332 17.5 42.999v193c0 17.333 1.66699 32.833 5 46.5s9.33301 35.167 18 64.5l16 54c10 34 15 71 15 111c0 54.667 -13 98 -39 130s-62.667 48 -110 48c-27.333 23.333 -56.666 35 -87.999 35c-8 0 -16.667 -1 -26 -3
c-16 10 -34.333 16.667 -55 20v104c0 16.667 -3 32.334 -9 47.001c-20.667 50 -57.667 75 -111 75c-18 0 -34 -3.33301 -48 -10c-48.667 -20.667 -73.334 -58 -74.001 -112v-263c-37.333 18.667 -72 28 -104 28c-16.667 0 -36 -3.66699 -58 -11
c-30 -10 -54 -26.167 -72 -48.5s-27 -48.833 -27 -79.5c0 -28.667 8.16699 -49.667 24.5 -63s46.833 -22 91.5 -26c35.333 -3.33301 65 -19.333 89 -48c16.667 -20.667 34.667 -39.667 54 -57l19 -15c20 -17.333 32.333 -31 37 -41v-179c0 -16.667 5.83301 -31 17.5 -43
s26.167 -18 43.5 -18h330c17.333 0 31.833 6 43.5 18zM243 275.999c-17.333 15.333 -36.999 26.332 -58.999 32.999c-16.667 5.33301 -37.667 10 -63 14c-4 0.666992 -10.667 1.66699 -20 3s-15.5 3.5 -18.5 6.5s-4.5 7.83301 -4.5 14.5c0 12 2.66699 22.667 8 32
c17.333 30 46.333 45 87 45c21.333 0 50 -8.66699 86 -26s62.333 -26 79 -26c0 64.667 0.333008 122.667 1 174v175c0 18 5.66699 32.5 17 43.5s25.666 16.5 42.999 16.5s31.333 -5.66699 42 -17s16 -25.666 16 -42.999c0 -34.667 0.333008 -65.334 1 -92.001v-92
c13.333 13.333 26.666 20 39.999 20c25.333 0 46.333 -10 63 -30c8.66699 6.66699 20.334 10 35.001 10c14 0 27.167 -3.5 39.5 -10.5s20.833 -15.5 25.5 -25.5c14.667 1.33301 23.667 2 27 2c58 0 87 -38.667 87 -116c0 -27.333 -8.66699 -74 -26 -140
c-18 -64 -27 -110 -27 -138h-330v2c-10.667 23.333 -24 42.333 -40 57l-28 24l-26 24l-25 28c-7.33301 8.66699 -17.333 19.334 -30 32.001zM650.001 46.998c8 8 17.667 12 29 12c12 0 21.833 -3.83301 29.5 -11.5s11.5 -17.5 11.5 -29.5s-3.83301 -21.833 -11.5 -29.5
s-17.5 -11.5 -29.5 -11.5s-21.833 3.83301 -29.5 11.5s-11.5 17.5 -11.5 29.5c0 11.333 4 21 12 29z" />
    <glyph glyph-name="uni261E" unicode="&#x261e;" horiz-adv-x="1017" 
d="M317.5 -11.5c13 -3 38.166 -10.1689 75.499 -21.502c59.333 -18.667 110 -28 152 -28c54.667 0 98 12.833 130 38.5s48 62.834 48 111.501c24 26 36 55.333 36 88c0 8.66699 -1 17.334 -3 26.001c10 17.333 16.667 35.333 20 54h103c18.667 0 35 3.33301 49 10
c22 8 39.667 21.833 53 41.5s20 42.5 20 68.5c0 18 -3 34.333 -9 49c-21.333 48 -59 72 -113 72l-193 2h-69c18 37.333 27 72 27 104c0 19.333 -3 38.666 -9 57.999c-10.667 30 -27 54 -49 72s-49 27 -81 27c-27.333 0 -46 -5.66699 -56 -17
c-18 -20 -28.333 -52.667 -31 -98c-1.33301 -16 -5.33301 -30.333 -12 -43c-6 -12.667 -11.833 -22 -17.5 -28s-16.167 -15.667 -31.5 -29l-27 -25c-2.66699 -3.33301 -8.66699 -9.66602 -18 -18.999l-16 -20c-17.333 -19.333 -30.666 -31.333 -39.999 -36h-179
c-16.667 0 -31 -6 -43 -18s-18 -26.333 -18 -43v-331c0 -16.667 6 -31 18 -43s26.333 -18 43 -18h193c18.667 0 34.5 -1.5 47.5 -4.5zM302.999 403.998c16 12 32.333 28.001 49 48.001c14 17.333 30.667 34.333 50 51c13.333 12 24 22.667 32 32
c15.333 17.333 26.666 36.333 33.999 57c5.33301 17.333 10 38.666 14 63.999c2 15.333 4 26 6 32c0.666992 6.66699 4.33398 10.667 11.001 12h6c13.333 0 24.333 -3.33301 33 -10c29.333 -18 44 -46.667 44 -86c0 -26 -8.33301 -55.333 -25 -88
c-17.333 -33.333 -26 -59.333 -26 -78h174c51.333 -0.666992 109.333 -1 174 -1c18 0 32.5 -5.33301 43.5 -16s16.5 -25.334 16.5 -44.001c0 -17.333 -5.5 -31.333 -16.5 -42s-25.5 -16 -43.5 -16h-91c-27.333 -0.666992 -58 -1 -92 -1
c13.333 -13.333 20 -26.666 20 -39.999c0 -24.667 -10 -45.667 -30 -63c6.66699 -8.66699 10 -20 10 -34s-3.5 -27.167 -10.5 -39.5s-15.833 -21.166 -26.5 -26.499l2 -26c0 -58.667 -38.667 -88 -116 -88c-28 0 -74.667 9 -140 27c-64 17.333 -110 26 -138 26v331h3
c12 5.33301 23 11.666 33 18.999zM147.999 125.999c8 8 17.667 12 29 12s21 -4 29 -12s12 -17.667 12 -29s-4 -21 -12 -29s-17.667 -12 -29 -12c-12 0 -21.833 3.83301 -29.5 11.5s-11.5 17.5 -11.5 29.5c0 11.333 4 21 12 29z" />
    <glyph glyph-name="uni261F" unicode="&#x261f;" horiz-adv-x="852" 
d="M287 -69c21.333 -49.333 58.6689 -74 112.002 -74c17.333 0 33 3.33301 47 10c48.667 20.667 73 58 73 112v104c20.667 3.33301 39 10 55 20c10.667 -1.33301 19 -2 25 -2c32 0 61.667 11.333 89 34c26 0 48.333 5 67 15c54.667 28.667 82 83 82 163
c0 36.667 -8.66699 85.667 -26 147c-18.667 62 -28 105 -28 129v193c0 16.667 -5.83301 31 -17.5 43s-26.167 18 -43.5 18h-330c-17.333 0 -31.833 -6 -43.5 -18s-17.5 -26.333 -17.5 -43v-179c-6 -11.333 -18 -24.333 -36 -39c-26 -19.333 -50.667 -44 -74 -74
c-22.667 -28.667 -52.334 -44.667 -89.001 -48c-41.333 -4 -71 -12.167 -89 -24.5s-27 -33.833 -27 -64.5c0 -21.333 4 -40.666 12 -57.999c12 -24.667 31 -44.334 57 -59.001s55.333 -22 88 -22c32 0 66.667 9.33301 104 28v-263c1.33301 -18 4.66602 -34 9.99902 -48z
M649.503 711.5c7.66699 7.66699 17.5 11.5 29.5 11.5s21.833 -3.83301 29.5 -11.5s11.5 -17.5 11.5 -29.5s-3.83301 -21.833 -11.5 -29.5s-17.5 -11.5 -29.5 -11.5c-11.333 0 -21 4 -29 12s-12 17.667 -12 29c0 12 3.83301 21.833 11.5 29.5zM749.003 453
c17.333 -65.333 25.998 -112.002 25.998 -140.002c0 -77.333 -29 -116 -87 -116c-3.33301 0 -12.333 0.666992 -27 2c-4.66699 -10 -13.167 -18.5 -25.5 -25.5s-25.5 -10.5 -39.5 -10.5c-14.667 0 -26.334 3.33301 -35.001 10c-16.667 -20 -37.667 -30 -63 -30
c-13.333 0 -26.666 6.66699 -39.999 20v-92c-0.666992 -27.333 -1 -58 -1 -92c0 -17.333 -5.33301 -31.666 -16 -42.999s-24.667 -17 -42 -17s-31.666 5.5 -42.999 16.5s-17 25.5 -17 43.5v175c-0.666992 51.333 -1 109.333 -1 174c-16.667 0 -43 -8.66699 -79 -26
s-64.667 -26 -86 -26c-9.33301 0 -20.666 2 -33.999 6c-40.667 14 -61 37.667 -61 71v6v2c0 2.66699 1.33301 5.33398 4 8.00098c10.667 3.33301 25 6.33301 43 9c14 2 30.667 5.66699 50 11c27.333 6.66699 50 18.667 68 36c7.33301 6.66699 17.333 17 30 31l25 28l26 22
l28 25c16.667 16.667 30 36 40 58v2h330c0 -28 9 -74 27 -138z" />
    <glyph glyph-name="uni2630" unicode="&#x2630;" horiz-adv-x="730" 
d="M699.5 515c10.333 10 15.5 21.667 15.5 35s-4.83301 25 -14.5 35s-21.5 15 -35.5 15h-600c-14 0 -25.833 -5 -35.5 -15s-14.5 -21.667 -14.5 -35s5.16699 -25 15.5 -35s21.833 -15 34.5 -15h600c12.667 0 24.167 5 34.5 15zM29.5 385
c-9.66699 -10 -14.5 -21.667 -14.5 -35s5.16699 -25 15.5 -35s21.833 -15 34.5 -15h600c12.667 0 24.167 5 34.5 15s15.5 21.667 15.5 35s-4.83301 25 -14.5 35s-21.5 15 -35.5 15h-600c-14 0 -25.833 -5 -35.5 -15zM29.5 185c-9.66699 -10 -14.5 -21.667 -14.5 -35
s5.16699 -25 15.5 -35s21.833 -15 34.5 -15h600c12.667 0 24.167 5 34.5 15s15.5 21.667 15.5 35s-4.83301 25 -14.5 35s-21.5 15 -35.5 15h-600c-14 0 -25.833 -5 -35.5 -15z" />
    <glyph glyph-name="uni263D" unicode="&#x263d;" horiz-adv-x="850" 
d="M223 109c-74 0 -143.331 18.333 -207.998 55c22 -36.667 46 -68 72 -94c85.333 -85.333 188.666 -128 309.999 -128c79.333 0 152.666 19.667 219.999 59s120.5 92.333 159.5 159s58.5 139.667 58.5 219c0 120.667 -42.667 223.667 -128 309
c-28.667 31.333 -60.667 55.333 -96 72c38 -66 57 -136 57 -210c0 -22 -1.33301 -42 -4 -60c-8.66699 -64.667 -30.5 -124 -65.5 -178s-79.667 -98.5 -134 -133.5s-113.833 -56.833 -178.5 -65.5c-18.667 -2.66699 -39.667 -4 -63 -4z" />
    <glyph glyph-name="uni2661" unicode="&#x2661;" horiz-adv-x="890" 
d="M875 486c0 61.333 -23.3311 113.334 -69.998 156.001c-42.667 38.667 -93.334 58 -152.001 58s-109.334 -19.333 -152.001 -58l-56 -52l-58 52c-40.667 38.667 -90.667 58 -150 58c-38.667 0 -75 -9.33301 -109 -28s-61.333 -44.334 -82 -77.001s-31 -69 -31 -109
c0 -61.333 23.333 -113.333 70 -156l360 -330l360 330c46.667 42.667 70 94.667 70 156zM95.002 486.001c0 42 13 75.499 39 100.499s60.333 37.5 103 37.5c36 0 70 -16 102 -48l106 -92l104 92c35.333 32 70 48 104 48c42.667 0 76.667 -12.667 102 -38
c25.333 -23.333 38 -56.666 38 -99.999c0 -42 -14 -76.667 -42 -104l-306 -286l-306 286c-29.333 25.333 -44 60 -44 104z" />
    <glyph glyph-name="heart" unicode="&#x2665;" horiz-adv-x="890" 
d="M875 488c0 61.333 -23.332 113.334 -69.999 156.001c-42.667 38.667 -93.334 58 -152.001 58c-59.333 0 -109.333 -19.333 -150 -58l-58 -52l-56 52c-42.667 38.667 -93.667 58 -153 58c-40 0 -76.833 -9.33301 -110.5 -28s-60.5 -44.334 -80.5 -77.001s-30 -69 -30 -109
c0 -61.333 23.333 -114 70 -158l360 -330l360 330c46.667 44 70 96.667 70 158z" />
    <glyph glyph-name="musicalnote" unicode="&#x266a;" horiz-adv-x="612" 
d="M245 180c-28.667 0 -57.667 -5.33398 -87 -16.001c-42 -14 -76.167 -36.333 -102.5 -67s-39.5 -63 -39.5 -97c0 -12 2 -24 6 -36c9.33301 -26 27.666 -46.5 54.999 -61.5s58.333 -22.5 93 -22.5c28.667 0 56.667 5.33301 84 16c40.667 15.333 74.834 38 102.501 68
s40.834 62.667 39.501 98v536c30 -4.66699 56.667 -17.834 80 -39.501s38.333 -46.5 45 -74.5c9.33301 -41.333 14 -73.666 14 -96.999c0 -17.333 -2.33301 -29.666 -7 -36.999c-0.666992 -6.66699 -0.666992 -12 0 -16c0.666992 -4.66699 2.66699 -7 6 -7
c5.33301 0 12 7.66699 20 23c28 40 42 81.333 42 124c0 55.333 -21.333 105 -64 149c-42 42.667 -75.167 80 -99.5 112s-36.5 60.333 -36.5 85h-80v-652c-22.667 8 -46.334 12 -71.001 12z" />
    <glyph glyph-name="musicalnotedbl" unicode="&#x266b;" horiz-adv-x="770" 
d="M181 126c-26 0 -51.334 -5.66992 -76.001 -17.0029c-28 -13.333 -50 -31.166 -66 -53.499s-24 -46.166 -24 -71.499c0 -13.333 2.66699 -27.333 8 -42c15.333 -46 48.666 -69 99.999 -69c22.667 0 46 4.33301 70 13c34 12.667 62.167 31.5 84.5 56.5
s33.5 52.833 33.5 83.5v490l354 82v-376c-12.667 2 -25 3 -37 3c-28.667 0 -54.667 -5.66699 -78 -17c-28 -13.333 -50.167 -31.166 -66.5 -53.499s-24.5 -46.166 -24.5 -71.499c0 -12.667 2.66699 -26.334 8 -41.001c8 -22.667 20.833 -40 38.5 -52s38.834 -18 63.501 -18
c20.667 0 44 4.66699 70 14c34 12.667 62.167 31.5 84.5 56.5s32.833 52.833 31.5 83.5v704l-534 -116v-592c-11.333 2.66699 -24.666 4 -39.999 4z" />
    <glyph glyph-name="uni268F" unicode="&#x268f;" horiz-adv-x="630" 
d="M185 650h-90c-53.333 0 -80 -26.667 -80 -80v-90c0 -53.333 26.667 -80 80 -80h90c53.333 0 80 26.667 80 80v90c0 53.333 -26.667 80 -80 80zM535 650h-90c-53.333 0 -80 -26.667 -80 -80v-90c0 -53.333 26.667 -80 80 -80h90c53.333 0 80 26.667 80 80v90
c0 53.333 -26.667 80 -80 80zM185 300h-90c-53.333 0 -80 -26.667 -80 -80v-90c0 -53.333 26.667 -80 80 -80h90c53.333 0 80 26.667 80 80v90c0 53.333 -26.667 80 -80 80zM365 220v-90c0 -53.333 26.667 -80 80 -80h90c53.333 0 80 26.667 80 80v90
c0 53.333 -26.667 80 -80 80h-90c-53.333 0 -80 -26.667 -80 -80z" />
    <glyph glyph-name="uni2691" unicode="&#x2691;" horiz-adv-x="930" 
d="M348 364c20 6.66699 38.6709 9.99902 56.0039 9.99902c20 0 37.5 -4 52.5 -12s30.833 -19.333 47.5 -34c32.667 -28 63.667 -42 93 -42c13.333 0 26.666 2.33301 39.999 7c28 10 64.667 40 110 90c44 48 98.667 119 164 213c2.66699 3.33301 4 7 4 11
c0 8.66699 -5.66699 12.334 -17 11.001c-2 0 -5 -0.666992 -9 -2c-86.667 -34.667 -163 -52 -229 -52c-40.667 0 -73.334 7 -98.001 21c-26.667 15.333 -49.834 33 -69.501 53s-43.5 46.667 -71.5 80c-16.667 19.333 -32.834 34 -48.501 44s-34.167 15 -55.5 15
c-15.333 0 -34.666 -3.66699 -57.999 -11c-41.333 -13.333 -92 -42 -152 -86l-92 -34l184 -720h100l-90 352c53.333 44 99.666 72.667 138.999 86z" />
    <glyph glyph-name="uni2692" unicode="&#x2692;" horiz-adv-x="1030" 
d="M105 408c4 0 9.16699 3 15.5 9l15.5 15l18 16c1.33301 0 2 3.66699 2 11c0 22 4.66699 37.667 14 47c16.667 10.667 32 16 46 16c24.667 0 55.334 -21.333 92.001 -64c0.666992 -0.666992 2 -1 4 -1c2.66699 0 7.33398 1.66699 14.001 5l38 35l38 35
c6.66699 4 7.33398 8.66699 2.00098 14c-2.66699 1.33301 -15.334 17.333 -38.001 48c-10 14 -15 27.667 -15 41c0 24.667 17 49 51 73c17.333 14 68 39.333 152 76c14.667 5.33301 17.334 8 8.00098 8c-30.667 1.33301 -80 2 -148 2c-34.667 -4 -96.667 -36 -186 -96
c-30.667 -21.333 -53 -39 -67 -53c-4.66699 -4.66699 -7.66699 -7 -9 -7c-4 -4 -7.33301 -14 -10 -30c-2.66699 -15.333 -8.83398 -27.833 -18.501 -37.5s-21.834 -14.5 -36.501 -14.5c-14 0 -23 -2 -27 -6c-4.66699 -4.66699 -11.334 -10 -20.001 -16l-7 -5l-7 -6
c-6.66699 -4.66699 -10 -8.66699 -10 -12v-3c0 -4.66699 1.33301 -8.66699 4 -12l70 -76c6 -8 11 -12 15 -12zM817 457c7.33301 0 15 -1 23 -3c16 -4 31 -6 45 -6c48 0 84.333 22.667 109 68c14 28 21 62 21 102c0 23.333 -1.66699 44.666 -5 63.999
c-1.33301 11.333 -5.66602 17 -12.999 17c-5.33301 0 -9 -3 -11 -9l-23 -36c-16.667 -26 -25 -38.667 -25 -38c-15.333 -25.333 -33.333 -38 -54 -38c-13.333 0 -27.333 5.33301 -42 16c-26.667 19.333 -40 38.666 -40 57.999c0 14 4 24 12 30
c23.333 46 38.666 72.667 45.999 80c0.666992 0.666992 1 2.33398 1 5.00098c0 5.33301 -2 9.66602 -6 12.999s-9 3.33301 -15 0c-85.333 -37.333 -132 -74.666 -140 -111.999c-4 -17.333 -5.66699 -36.666 -5 -57.999c2 -52 -10.333 -91.333 -37 -118l-68 -70l68 -78l82 78
c23.333 23.333 49 35 77 35zM447 486c-2 0 -5.66797 -1.33301 -11.001 -4l-72 -62c-2.66699 -5.33301 -4 -9 -4 -11s1.33301 -5 4 -9l414 -472c6.66699 -6.66699 13.334 -10 20.001 -10c6 0 12 2 18 6l48 42c6.66699 6 10 12 10 18s-2.66699 12.667 -8 20l-410 476
c-2.66699 4 -5.66699 6 -9 6zM140.999 -21c0 -6.66699 3.66797 -13.001 11.001 -19.001l46 -46c4.66699 -4.66699 10 -7 16 -7c7.33301 0 14.666 3.66699 21.999 11l246 242l-76 86l-254 -248c-7.33301 -7.33301 -11 -13.666 -11 -18.999z" />
    <glyph glyph-name="uni2699" unicode="&#x2699;" horiz-adv-x="870" 
d="M775 350c0 49.333 26.6641 90.665 79.9971 123.998c-8.66699 30 -20 57.333 -34 82c-8.66699 -2.66699 -19 -4 -31 -4c-36 0 -71 16 -105 48c-26 28 -39 59.667 -39 95c0 16 1.66699 29.667 5 41c-25.333 13.333 -53.333 24.666 -84 33.999
c-31.333 -53.333 -75.333 -80 -132 -80s-100.667 26.667 -132 80c-30.667 -9.33301 -58.667 -20.666 -84 -33.999c3.33301 -12 5 -22.667 5 -32v-4c0 -26.667 -6.66699 -51.334 -20 -74.001s-31.166 -40.667 -53.499 -54s-45.833 -20 -70.5 -20
c-7.33301 0 -17.666 1.33301 -30.999 4c-8 -15.333 -19.333 -42.666 -34 -81.999c54.667 -34.667 82 -76 82 -124c0 -53.333 -27.333 -97.333 -82 -132c14.667 -39.333 26 -66.666 34 -81.999c7.33301 2 19 3.66699 35 5h5c38.667 0 70.834 -13 96.501 -39
s38.5 -58 38.5 -96c0 -11.333 -1.66699 -24.666 -5 -39.999c27.333 -13.333 55.333 -25.333 84 -36c30.667 54.667 74.667 82 132 82s101.333 -27.333 132 -82c28.667 10.667 56.667 22.667 84 36c-3.33301 11.333 -5 25 -5 41c0 35.333 13 67 39 95c34 32 69 48 105 48
c12 0 22.333 -1.33301 31 -4c14 24.667 25.333 52 34 82c-53.333 33.333 -80 74 -80 122zM252.997 349.999c0 32.667 8.16699 63.167 24.5 91.5s38.5 50.833 66.5 67.5s58.333 25 91 25s63 -8.33301 91 -25s50.167 -39.167 66.5 -67.5s24.5 -58.833 24.5 -91.5
c0 -33.333 -8.16699 -63.833 -24.5 -91.5s-38.333 -49.667 -66 -66s-58.167 -24.5 -91.5 -24.5c-50.667 0 -93.667 17.667 -129 53s-53 78.333 -53 129z" />
    <glyph glyph-name="uni26A0" unicode="&#x26a0;" horiz-adv-x="992" 
d="M496 776c-15.333 0 -25.333 -5.99902 -30 -17.999l-446 -782c-2.66699 -4.66699 -4 -9.66699 -4 -15c0 -8.66699 3.5 -16.667 10.5 -24s14.833 -11 23.5 -11h892c10 0 18.333 3.5 25 10.5s10 14.833 10 23.5c0 5.33301 -1.66699 10.666 -5 15.999l-446 782
c-4.66699 12 -14.667 18 -30 18zM552 500.001v-300h-110v300h110zM442 126.001h110v-100h-110v100z" />
    <glyph glyph-name="uni26A1" unicode="&#x26a1;" horiz-adv-x="430" 
d="M153.5 1c63 70 122.833 140 179.5 210s84 109 82 117c-2.66699 12 -35 31 -97 57c-62.667 26 -94.334 40.333 -95.001 43c-0.666992 2 25.333 64 78 186c53.333 121.333 78 183.333 74 186c-1.33301 1.33301 -9.66602 -5.66699 -24.999 -21
c-21.333 -21.333 -45 -46.666 -71 -75.999l-180 -209c-33.333 -39.333 -55.666 -66.833 -66.999 -82.5s-17 -27.834 -17 -36.501c0 -8 4.16699 -14.5 12.5 -19.5s24.5 -12.167 48.5 -21.5l37 -15c22.667 -9.33301 37 -15 43 -17c21.333 -8.66699 35.333 -15 42 -19
s10 -9.33301 10 -16c0 -6 -5.33301 -19.667 -16 -41c-14.667 -32 -22.334 -48.667 -23.001 -50l-79 -182c-26 -60 -37.667 -91.333 -35 -94s35.5 31 98.5 101z" />
    <glyph glyph-name="uni26AB" unicode="&#x26ab;" horiz-adv-x="730" 
d="M15 350c0 -63.333 15.6689 -121.666 47.002 -174.999s73.666 -95.833 126.999 -127.5s112 -47.5 176 -47.5s122.667 15.833 176 47.5s95.666 74.167 126.999 127.5s47 111.666 47 174.999c0 64 -15.5 122.833 -46.5 176.5s-73.333 96 -127 127s-112.5 46.5 -176.5 46.5
c-97.333 0 -180 -34 -248 -102s-102 -150.667 -102 -248z" />
    <glyph glyph-name="uni26C8" unicode="&#x26c8;" horiz-adv-x="1030" 
d="M895 57c36.667 20.667 65.835 48.833 87.502 84.5s32.5 75.167 32.5 118.5s-10.833 82.833 -32.5 118.5s-50.834 63.834 -87.501 84.501s-76.667 31 -120 31c-11.333 0 -24.666 -1.33301 -39.999 -4c-10.667 35.333 -28.167 67 -52.5 95s-54 50.167 -89 66.5
s-72.5 24.5 -112.5 24.5c-48.667 0 -93.334 -11.667 -134.001 -35s-72.834 -54.833 -96.501 -94.5s-35.5 -83.167 -35.5 -130.5c0 -10.667 0.666992 -23.334 2 -38.001l-10 1l-10 1c-32.667 0 -63 -8 -91 -24s-50.167 -37.5 -66.5 -64.5s-24.5 -56.833 -24.5 -89.5
c0 -31.333 8.33301 -60.5 25 -87.5s39 -48.5 67 -64.5s58 -24 90 -24h578c43.333 0 83.333 10.333 120 31zM597.001 307.999c0 -8.66699 -4.66602 -18.665 -13.999 -29.998c-24.667 -34 -69.334 -83.333 -134.001 -148c-6.66699 -8.66699 -14.334 -13 -23.001 -13
c-3.33301 0 -7 1 -11 3c-5.33301 5.33301 -8 11.333 -8 18c0 7.33301 1.33301 14.666 4 21.999l52 114l-42 18c-20 5.33301 -30 15.333 -30 30c0 8 4 18 12 30c10.667 13.333 25.667 30.666 45 51.999l29 32l36 39l26 27c7.33301 7.33301 15 11 23 11c12.667 0 19 -7 19 -21
c0 -13.333 -2 -20 -6 -20l-50 -116c6.66699 -0.666992 19.334 -6 38.001 -16h4c20 -8 30 -18.667 30 -32z" />
    <glyph glyph-name="uni26EF" unicode="&#x26ef;" horiz-adv-x="1017" 
d="M821 432c6.66699 0 14 1.00488 22 3.00488c4.66699 -4.66699 10.334 -11.334 17.001 -20.001c10.667 -10.667 17 -16 19 -16l14 8c14 8.66699 31.333 20.667 52 36c7.33301 6 11 9.66699 11 11c0 2.66699 -2.33301 8.66699 -7 18l-7 14l-6 11
c6.66699 9.33301 12 20.333 16 33c0.666992 0.666992 6 1.66699 16 3c11.333 1.33301 19.333 3 24 5c6 3.33301 9 6.33301 9 9c-0.666992 10.667 -1 29 -1 55c0 12.667 -1 21.334 -3 26.001c-0.666992 3.33301 -2 5.66602 -4 6.99902
c-4.66699 2.66699 -11.667 4.66699 -21 6l-27 1l-20 30c8.66699 15.333 13 30 13 44c0 2 -3.66699 5.66699 -11 11c-16.667 10 -35.334 19.333 -56.001 28c-6.66699 4 -12 6 -16 6c-0.666992 0 -2.66699 -2 -6 -6c-12.667 -15.333 -21 -26.333 -25 -33h-7h-7
c-6.66699 0 -14 -1 -22 -3l-17 20c-10.667 10 -16.667 15 -18 15c-2 0 -6.66699 -2.33301 -14 -7c-12.667 -7.33301 -30 -19 -52 -35c-7.33301 -5.33301 -11 -9 -11 -11s0.666992 -5 2 -9c6 -13.333 11.667 -25.333 17 -36c-7.33301 -9.33301 -12.666 -20 -15.999 -32
l-16 -2c-8.66699 -0.666992 -16.667 -2.66699 -24 -6c-6.66699 -2.66699 -10 -5.66699 -10 -9c2 -28.667 2.66699 -47.334 2 -56.001c0 -6.66699 0.333008 -11.334 1 -14.001c0 -8.66699 1.66699 -14.334 5 -17.001c4 -4 8.66699 -6 14 -6
c2.66699 -0.666992 5.66699 -1 9 -1c1.33301 -0.666992 5.33301 -1 12 -1h15c5.33301 -12.667 12 -22.667 20 -30c-0.666992 -0.666992 -2 -4 -4 -10c-6.66699 -20 -10 -31.667 -10 -35c0 -2 4.33301 -5.33301 13 -10c16.667 -10 34.667 -19.667 54 -29
c8 -3.33301 13 -5 15 -5c1.33301 0 3.66602 1.66699 6.99902 5c4.66699 4.66699 9 10.667 13 18c4.66699 7.33301 8.66699 12.666 12 15.999h7h7zM385 136.005c4 20.667 6.00488 39.0029 6.00488 55.0029c16.667 6.66699 31.667 13 45 19l56 -43
c5.33301 -4.66699 8.66602 -7 9.99902 -7s6.33301 3.66699 15 11c19.333 15.333 36.333 31.666 51 48.999c6.66699 7.33301 10 12.666 10 15.999l-1 6c-10 8.66699 -25.667 29 -47 61l19 45c3.33301 1.33301 12.333 2.33301 27 3c15.333 1.33301 29 3.33301 41 6
c11.333 3.33301 17 7 17 11v92c0 2.66699 -5.66699 5.66699 -17 9c-8.66699 2 -22.334 4.33301 -41.001 7c-14.667 0.666992 -23.667 2 -27 4c-5.33301 16.667 -12 32.334 -20 47.001l23 30c7.33301 8.66699 13.666 17 18.999 25c4 6 6 9.66699 6 11
c0 2.66699 -3.33301 7.66699 -10 15c-9.33301 10 -26.333 26.333 -51 49l-14 12l-4 -2l-63 -47c-17.333 8 -32 13.667 -44 17c-1.33301 3.33301 -2.33301 12.666 -3 27.999l-6 42c-2.66699 12 -6.33398 18 -11.001 18h-92c-5.33301 0 -9.83301 -10.167 -13.5 -30.5
s-5.5 -39.5 -5.5 -57.5c-15.333 -4 -30.666 -10 -45.999 -18c-11.333 10.667 -30 25 -56 43l-7 5l-4 2c-2.66699 0 -7.33398 -3.33301 -14.001 -10c-19.333 -16 -36.333 -33 -51 -51c-6.66699 -7.33301 -10 -12.333 -10 -15l2 -5c4.66699 -4.66699 13 -15.334 25 -32.001
l22 -30c-8.66699 -13.333 -15 -28.333 -19 -45c-16.667 0 -35.167 -1.83301 -55.5 -5.5s-30.5 -8.16699 -30.5 -13.5v-93c0 -2.66699 6 -5.66699 18 -9c14 -4 27.667 -6.33301 41 -7c15.333 -1.33301 24 -2.33301 26 -3c3.33301 -10.667 10 -26.667 20 -48
c-2.66699 -4.66699 -9.66699 -14.334 -21 -29.001l-19 -26l-5 -8c-1.33301 -1.33301 -2 -2.33301 -2 -3c0 -3.33301 3.33301 -8.66602 10 -15.999c16 -18.667 32.667 -35 50 -49c7.33301 -7.33301 11.666 -11 12.999 -11l6 2l62 48c14 -8.66699 29 -15 45 -19
c0 -16.667 1.83301 -35.167 5.5 -55.5s8.16699 -30.5 13.5 -30.5h92c5.33301 0 10 10.333 14 31zM816.005 633.008c16 0 29.333 -5.33105 40 -15.998s16 -24.334 16 -41.001c0 -15.333 -5.5 -28.333 -16.5 -39s-24.5 -16 -40.5 -16c-15.333 0 -28.5 5.33301 -39.5 16
s-16.5 24 -16.5 40c0 15.333 5.66699 28.666 17 39.999c10.667 10.667 24 16 40 16zM361.005 501.01c38 -16.667 57 -45.667 57 -87c0 -14 -2.33301 -26 -7 -36c-8 -16.667 -19.333 -30.167 -34 -40.5s-32 -15.5 -52 -15.5c-14 0 -25.667 2.33301 -35 7
c-38.667 16 -58 44.333 -58 85c0 26 9 48.167 27 66.5s40 27.5 66 27.5c14 0 26 -2.33301 36 -7zM667.005 54.0098c8 -12.667 16.6699 -22.333 26.0029 -29l-7 -49c0 -4 14.333 -11.167 43 -21.5s45.667 -15.5 51 -15.5c2.66699 0 5.33398 2.33301 8.00098 7
c10.667 18 17.667 31.667 21 41c13.333 2 26.666 5 39.999 9c21.333 -21.333 35.666 -32 42.999 -32l4 2l3 3l6 4c2.66699 2.66699 4.66699 4.33398 6 5.00098c21.333 18.667 36.666 32.667 45.999 42c6.66699 6.66699 10 11 10 13c0 3.33301 -2.66699 9 -8 17l-4 6
c-0.666992 0.666992 -1.33398 1.5 -2.00098 2.5l-3 4.5l-7 9l-4 7c4 8 8 20.333 12 37c33.333 10 50 18 50 24c0 14.667 -3 34.667 -9 60s-12 38 -18 38l-49 -2c-7.33301 11.333 -16.333 21.333 -27 30l3 15l3 18c1.33301 6.66699 2 12 2 16
c0 4.66699 -14.167 11.834 -42.5 21.501s-45.833 14.5 -52.5 14.5c-1.33301 0 -4 -2 -8 -6c-12.667 -21.333 -20 -35 -22 -41c-16 -2 -29 -5.33301 -39 -10l-12 10l-10 8c-8.66699 10 -15.667 15 -21 15l-4 -2c-9.33301 -9.33301 -19 -18 -29 -26
c-16.667 -13.333 -27.334 -22.333 -32.001 -27c-6.66699 -6.66699 -10 -11.334 -10 -14.001l1 -1c0 -2 1.33301 -4.33301 4 -7c10 -19.333 18 -32 24 -38c-6.66699 -14 -11 -27 -13 -39l-9 -2c-3.33301 -0.666992 -7.66602 -2.33398 -12.999 -5.00098l-14 -5
c-3.33301 -1.33301 -7 -3.33301 -11 -6c-2.66699 -2 -4 -4 -4 -6s0.666992 -7 2 -15l18 -77l4 -5h7zM795.008 207.011c16.667 0 31.167 -6 43.5 -18s18.5 -26.333 18.5 -43c0 -17.333 -6.16699 -32 -18.5 -44s-26.833 -18 -43.5 -18s-31 6.16699 -43 18.5
s-18 26.833 -18 43.5s6 31 18 43s26.333 18 43 18z" />
    <glyph glyph-name="uni2702" unicode="&#x2702;" horiz-adv-x="1017" 
d="M148 247.5c-38.667 -23.667 -70.334 -53.6689 -95.001 -90.002s-37 -72.833 -37 -109.5c0 -33.333 10.667 -59.833 32 -79.5s49 -29.5 83 -29.5c38 0 76.167 11.667 114.5 35s70 53.333 95 90s37.5 73.334 37.5 110.001c0 4 -0.666992 11.333 -2 22l44 39l433 -221
c8 -2.66699 14.333 -4 19 -4c6.66699 0 15.667 1.33301 27 4l36 6c14 2 19.667 2.66699 17 2l14 4c10.667 3.33301 19 8 25 14c6.66699 6.66699 10 15.667 10 27c0 14.667 -5.66699 25.667 -17 33l-361 250l361 250c11.333 7.33301 17 18.333 17 33
c0 10.667 -3.16699 19.667 -9.5 27s-14.166 11.666 -23.499 12.999c-8 0.666992 -23 3.66699 -45 9c-23.333 5.33301 -40.333 8 -51 8c-8 0 -14.333 -1.33301 -19 -4c-6.66699 -4.66699 -20.334 -11.667 -41.001 -21l-39 -19l-156 -80l-180 -93l-17 -8l-44 39
c1.33301 10.667 2 18 2 22c0 36.667 -12.5 73.334 -37.5 110.001s-56.667 66.667 -95 90s-76.5 35 -114.5 35c-34 0 -61.667 -9.83301 -83 -29.5s-32 -46.167 -32 -79.5c0 -37.333 13.167 -74.833 39.5 -112.5s59.333 -68.167 99 -91.5s78.167 -33.666 115.5 -30.999
c4.66699 -8.66699 16.334 -20.667 35.001 -36l27 -25v-12c-36 -32.667 -56.667 -53 -62 -61h-7c-38 0 -76.333 -11.833 -115 -35.5zM131 658.998c17.333 0 33.332 -4.33301 47.999 -13c32.667 -18 58.667 -41.667 78 -71c13.333 -21.333 20 -38 20 -50v-3l-14 -2
c-16 0 -34.5 5.5 -55.5 16.5s-38.5 25.167 -52.5 42.5c-25.333 27.333 -38 52 -38 74v3c4.66699 2 9.33398 3 14.001 3zM871.999 648.998l88 -16l-522 -361l-23 14l-56 -50c-10 15.333 -24 27.333 -42 36l57 56l-3 65zM358.999 463.998l22.001 -19
c-3.33301 -1.33301 -6.83301 -3 -10.5 -5s-6.5 -3.33301 -8.5 -4l-8 -5l-8 -5c-4.66699 -4.66699 -8.33398 -10 -11.001 -16l-18 18c19.333 8.66699 33.333 20.667 42 36zM409 320.998c8 -8 17.667 -12 29 -12s21 4 29 12s12 17.667 12 29c0 12 -3.83301 21.833 -11.5 29.5
s-17.167 11.5 -28.5 11.5c-12 0 -22 -3.83301 -30 -11.5s-12 -17.5 -12 -29.5c0 -11.333 4 -21 12 -29zM872 50.998l-392 200l107 74l373 -258zM224 85.998c-34 -30 -65 -45.001 -93 -45.001c-2.66699 0 -4.66699 0.333008 -6 1c-4.66699 0.666992 -7 2.66699 -7 6
c0 18.667 8 38.334 24 59.001s35.5 38 58.5 52s43.833 21 62.5 21c6.66699 0 10.667 -0.333008 12 -1c0 -1.33301 0.333008 -2.33301 1 -3v-2c0 -30.667 -17.333 -60 -52 -88z" />
    <glyph glyph-name="uni2707" unicode="&#x2707;" horiz-adv-x="1030" 
d="M900 151c35.333 20.667 63.3301 48.668 83.9971 84.001s31 73.666 31 114.999c0 42 -10.167 80.667 -30.5 116s-48.166 63.166 -83.499 83.499s-74 30.5 -116 30.5c-41.333 0 -79.666 -10.333 -114.999 -31s-63.333 -48.667 -84 -84s-31 -73.666 -31 -114.999
c0 -44 13.333 -87.333 40 -130h-160c26.667 38.667 40 82 40 130c0 42 -10.167 80.667 -30.5 116s-48.166 63.166 -83.499 83.499s-74 30.5 -116 30.5c-41.333 0 -79.666 -10.333 -114.999 -31s-63.333 -48.667 -84 -84s-31 -73.666 -31 -114.999
c0 -40.667 10.5 -78.667 31.5 -114s49.167 -63.5 84.5 -84.5s73.333 -31.5 114 -31.5h540c41.333 0 79.666 10.333 114.999 31zM132.497 415.001c11.667 20 27.5 35.833 47.5 47.5s41.667 17.5 65 17.5s45 -5.83301 65 -17.5s35.833 -27.5 47.5 -47.5s17.5 -41.667 17.5 -65
c0 -22.667 -5.83301 -44 -17.5 -64s-27.5 -36 -47.5 -48s-41.667 -18 -65 -18s-45 6 -65 18s-35.833 28 -47.5 48s-17.5 41.333 -17.5 64c0 23.333 5.83301 45 17.5 65zM654.997 350.001c0 23.333 5.83203 45 17.499 65s27.5 35.833 47.5 47.5s41.667 17.5 65 17.5
s45 -5.83301 65 -17.5s35.833 -27.5 47.5 -47.5s17.5 -41.667 17.5 -65c0 -22.667 -5.83301 -44 -17.5 -64s-27.5 -36 -47.5 -48s-41.667 -18 -65 -18c-35.333 0 -65.666 13 -90.999 39c-26 26 -39 56.333 -39 91z" />
    <glyph glyph-name="uni2708" unicode="&#x2708;" horiz-adv-x="1033" 
d="M865 280l38 2c26 0.666992 51.167 7.16699 75.5 19.5s36.5 28.5 36.5 48.5c2 4 3 7.66699 3 11c0 9.33301 -6.33301 17 -19 23c-16.667 9.33301 -28.667 16.333 -36 21c-5.33301 3.33301 -17.333 6.5 -36 9.5s-34 4.83301 -46 5.5h-274l-224 400h-100l124 -400h-180
l-112 100h-100l80 -170l-80 -170h100l112 100h180l-124 -400h100l224 400h258z" />
    <glyph glyph-name="uni2709" unicode="&#x2709;" horiz-adv-x="930" 
d="M17 626c-2.66699 -14.667 6.66699 -28 28 -40l97 -51l180 -97l71 -38l26 -14c10.667 -6.66699 26 -10 46 -10s35.333 3.33301 46 10l26 14l71 38l180 97l97 51c7.33301 3.33301 14.333 9 21 17s10 15.333 10 22c0 10 -9 15 -27 15h-846c-16 0 -24.667 -4.66699 -26 -14z
M465.001 276c-20 0 -35.333 3.33301 -46 10l-384 200c-5.33301 2.66699 -9 4 -11 4c-6 0 -9 -4.66699 -9 -14v-368c0 -10.667 5.66699 -21.334 17 -32.001s22.333 -16 33 -16h800c10.667 0 21.667 5.33301 33 16s17 21.334 17 32.001v368c0 9.33301 -3 14 -9 14
c-2 0 -5.66699 -1.33301 -11 -4l-384 -200c-10.667 -6.66699 -26 -10 -46 -10z" />
    <glyph glyph-name="uni270D" unicode="&#x270d;" horiz-adv-x="980" 
d="M132.5 71.5c-11.667 11.667 -17.498 25.166 -17.498 40.499v475c0 15.333 5.83301 28.833 17.5 40.5s25.5 17.5 41.5 17.5h465l98 99l-5 1h-5h-553c-22.667 0 -43 -4.33301 -61 -13c-29.333 -12.667 -52.833 -31.667 -70.5 -57s-26.5 -54.666 -26.5 -87.999v-475
c0 -20.667 4 -40.667 12 -60c13.333 -29.333 32.666 -52.833 57.999 -70.5s54.666 -26.5 87.999 -26.5h553c22.667 0 43 4 61 12c29.333 13.333 52.833 32.5 70.5 57.5s26.5 54.167 26.5 87.5v328l-99 -98v-230c0 -15.333 -5.83301 -28.833 -17.5 -40.5
s-25.5 -17.5 -41.5 -17.5h-553c-16 0 -29.833 5.83301 -41.5 17.5zM965.002 649.999c0 12.667 -5 24 -15 34l-47 46c-8 10 -19 15 -33 15c-13.333 0 -25 -5 -35 -15l-47 -48l113 -113l49 46c10 10 15 21.667 15 35zM731.002 625.999l-335 -336l-56 -169l170 55l335 335z
M470.002 273.999c-8.66699 0 -13 4.33301 -13 13c0 3.33301 1.33301 6.33301 4 9l262 262c2.66699 2.66699 5.66699 4 9 4c5.33301 0 9.33301 -2.5 12 -7.5s1.66699 -9.5 -3 -13.5l-263 -263c-2 -2.66699 -4.66699 -4 -8 -4z" />
    <glyph glyph-name="uni270E" unicode="&#x270e;" horiz-adv-x="810" 
d="M780 616c-10 21.333 -25.667 42.667 -47 64c-41.333 41.333 -78 62 -110 62c-4 0 -9.33301 -0.666992 -16 -2l-542 -540l-50 -240l238 52l542 540v16c0 11.333 -5 27.333 -15 48zM77 104.001l18 80l22 24l14 -2c8.66699 0 20.834 -4.66699 36.501 -14
s30.167 -20.666 43.5 -33.999c33.333 -32.667 50.666 -64 51.999 -94l-24 -24l-80 -18c-16.667 33.333 -44 60.666 -82 81.999z" />
    <glyph glyph-name="uni2712" unicode="&#x2712;" horiz-adv-x="728" 
d="M230 94c37.333 2.66699 63.334 6.33008 78.001 10.9971c15.333 5.33301 33.833 18.166 55.5 38.499s41.5 47.166 59.5 80.499c-10.667 -4 -22 -6 -34 -6c-21.333 0 -43.666 6.66699 -66.999 20c-34 20 -51 34.667 -51 44s18.667 16 56 20
c44.667 4 92.334 18.5 143.001 43.5s92.334 61.167 125.001 108.5c-28.667 -6.66699 -55.334 -10 -80.001 -10c-40.667 0 -72.667 10 -96 30c-12 10 -18 18.333 -18 25c0 3.33301 2 6.33301 6 9c8 4 46 12 114 24s116.667 32.667 146 62
c13.333 13.333 24.333 32.833 33 58.5s13 49.5 13 71.5c0 13.333 -2 24 -6 32c-6 14 -20.833 28.667 -44.5 44s-49.834 27.833 -78.501 37.5s-53 13.834 -73 12.501c-23.333 -1.33301 -58.666 -42 -105.999 -122c-48 -80 -76 -120 -84 -120c-16 2.66699 -24 19 -24 49
c0 22.667 4 48.834 12 78.501s17.333 55.167 28 76.5c-30 -12.667 -64.333 -35.667 -103 -69s-65.667 -65 -81 -95c-16.667 -41.333 -25 -93.333 -25 -156c0 -36.667 3 -83.667 9 -141c0 -5.33301 0.666992 -14 2 -26c2.66699 -23.333 4 -43.333 4 -60
c0 -13.333 -1.33301 -21 -4 -23c-6.66699 -2.66699 -17.334 7.33301 -32.001 30c-34.667 52.667 -60 105.334 -76 158.001c-10.667 -37.333 -16 -72.333 -16 -105c0 -71.333 22.667 -141.666 68 -210.999c-30.667 -83.333 -47.334 -158.666 -50.001 -225.999
c-0.666992 -18 4.66602 -29.333 15.999 -34c4.66699 -2.66699 9 -4 13 -4c6 0 10.333 4 13 12l70 224z" />
    <glyph glyph-name="uni2713" unicode="&#x2713;" horiz-adv-x="697" 
d="M322 34l349.999 559.999c6.66699 12.667 10 25.667 10 39c0 24 -10.667 43 -32 57c-12.667 6.66699 -25.667 10 -39 10c-24 0 -43 -10.667 -57 -32l-296 -474l-118 154c-10.667 14 -23.667 23 -39 27c-8 1.33301 -13.667 2 -17 2c-19.333 0 -35.5 -7.16699 -48.5 -21.5
s-19.5 -31.166 -19.5 -50.499c0 -14 4 -27.667 12 -41l180 -236c14.667 -18.667 33.334 -28 56.001 -28l2 2c24 0 42.667 10.667 56 32z" />
    <glyph glyph-name="uni2714" unicode="&#x2714;" horiz-adv-x="852" 
d="M427 -61c74.667 0 143.334 18.333 206.001 55s112.334 86.5 149.001 149.5s55 131.833 55 206.5s-18.333 143.5 -55 206.5s-86.334 112.833 -149.001 149.5s-131.334 55 -206.001 55s-143.5 -18.333 -206.5 -55s-112.833 -86.5 -149.5 -149.5s-55 -131.833 -55 -206.5
c0 -114 40 -211 120 -291s177 -120 291 -120zM139 325c0 6.66699 2.33398 12.334 7.00098 17.001l54 54c5.33301 5.33301 11.666 8 18.999 8c6 0 11.667 -2.66699 17 -8l114 -113c5.33301 -5.33301 11 -8 17 -8s11.667 2.66699 17 8l233 232c5.33301 5.33301 11.333 8 18 8
s12.667 -2.66699 18 -8l54 -54c5.33301 -4.66699 8 -10.334 8 -17.001s-2.66699 -12.667 -8 -18l-284 -283c-12 -12 -26 -18 -42 -18h-28c-16 0 -30 6 -42 18l-165 164c-4.66699 4.66699 -7 10.667 -7 18z" />
    <glyph glyph-name="uni2715" unicode="&#x2715;" horiz-adv-x="500" 
d="M485 551c0 16.667 -5.83301 30.667 -17.5 42s-26.167 17 -43.5 17c-18 0 -32.333 -5.33301 -43 -16l-132 -152l-132 152c-10.667 10.667 -25 16 -43 16c-17.333 0 -31.5 -5.5 -42.5 -16.5s-16.5 -25.167 -16.5 -42.5c0 -18 5.33301 -32.333 16 -43l138 -158l-138 -156
c-10.667 -10.667 -16 -25 -16 -43c0 -17.333 5.5 -31.5 16.5 -42.5s25.167 -16.5 42.5 -16.5c18 0 32.333 5.33301 43 16l132 152l132 -152c10.667 -10.667 25 -16 43 -16c17.333 0 31.833 5.66699 43.5 17s17.5 25.333 17.5 42s-6 31 -18 43l-138 156l138 158
c12 12 18 26.333 18 43z" />
    <glyph glyph-name="uni2716" unicode="&#x2716;" horiz-adv-x="870" 
d="M224.5 713.5c-64.333 -37.667 -115.333 -88.667 -153 -153s-56.5 -134.5 -56.5 -210.5s18.833 -146.167 56.5 -210.5s88.667 -115.333 153 -153s134.5 -56.5 210.5 -56.5s146.167 18.833 210.5 56.5s115.333 88.667 153 153s56.5 134.5 56.5 210.5
s-18.833 146.167 -56.5 210.5s-88.667 115.333 -153 153s-134.5 56.5 -210.5 56.5s-146.167 -18.833 -210.5 -56.5zM435 264l-152 -152l-88 86l154 152l-154 154l88 86l152 -152l154 152l86 -86l-154 -154l154 -152l-86 -86z" />
    <glyph glyph-name="uni2731" unicode="&#x2731;" horiz-adv-x="766" 
d="M16 491c0 -3.33301 0.666016 -7.66699 1.99902 -13c3.33301 -12 11 -21.667 23 -29l172 -99l-172 -99c-16 -8 -24 -21.333 -24 -40c0 -8 2 -16.667 6 -26l37 -65c9.33301 -16 23 -24 41 -24c8.66699 0 17.334 2.33301 26.001 7l171 99v-198
c0 -13.333 4.66699 -24.833 14 -34.5s21 -14.5 35 -14.5h72c14 0 26 4.83301 36 14.5s15 21.5 15 35.5v197l169 -99c8.66699 -4.66699 17.334 -7 26.001 -7c18 0 32 8 42 24l37 65c4.66699 8.66699 7 17 7 25c0 18 -8.33301 31.667 -25 41l-171 99l171 99
c16 9.33301 24 23 24 41c0 8 -2.33301 16.333 -7 25l-36 65c-10 15.333 -24 23 -42 23c-8 0 -16.667 -2 -26 -6l-169 -99v198c0 13.333 -5 24.833 -15 34.5s-22 14.5 -36 14.5h-72c-14 0 -25.667 -4.83301 -35 -14.5s-14 -21.5 -14 -35.5v-197l-171 99
c-8.66699 4.66699 -17.334 7 -26.001 7c-18 0 -31.667 -8 -41 -24l-37 -65c-4.66699 -6.66699 -7 -14.667 -7 -24z" />
    <glyph glyph-name="uni274E" unicode="&#x274e;" horiz-adv-x="830" 
d="M44.5 720.5c-19.667 -19.667 -29.5 -43.167 -29.5 -70.5v-600c0 -26.667 10 -50 30 -70s43.333 -30 70 -30h600c27.333 0 50.833 9.83301 70.5 29.5s29.5 43.167 29.5 70.5v600c0 28 -9.66699 51.667 -29 71s-43 29 -71 29h-600c-27.333 0 -50.833 -9.83301 -70.5 -29.5z
M175 198l154 152l-154 154l88 86l152 -152l154 152l86 -86l-154 -154l154 -152l-86 -86l-154 152l-152 -152z" />
    <glyph glyph-name="uni2753" unicode="&#x2753;" horiz-adv-x="610" 
d="M209 618c17.333 29.333 48.667 43.9971 94 43.9971c42 0 72.667 -12 92 -36c17.333 -25.333 26 -51.333 26 -78c0 -17.333 -6.5 -36.166 -19.5 -56.499s-27.167 -36.166 -42.5 -47.499l-24 -14c-52.667 -36.667 -87.334 -66.667 -104.001 -90
c-16 -18 -25.333 -59.333 -28 -124c0 -8 5.33301 -12 16 -12h128c10.667 0 16 4.66699 16 14c1.33301 19.333 4 34 8 44c4.66699 16.667 20.667 36.667 48 60l46 30c48.667 38 78 64.667 88 80c28 40 42 81.333 42 124c0 78.667 -27.5 139 -82.5 181s-127.5 63 -217.5 63
c-86.667 0 -154.167 -24 -202.5 -72s-74.166 -115.333 -77.499 -202h166c0 34.667 9.33301 65.334 28 92.001zM217.001 76.4971c-20 -19.667 -30 -45.167 -30 -76.5c0 -28.667 9.33301 -52.167 28 -70.5s42.667 -27.5 72 -27.5c30.667 -1.33301 56 7.83398 76 27.501
s30 45.167 30 76.5c0 28 -9.5 51.333 -28.5 70s-42.833 28 -71.5 28c-30.667 1.33301 -56 -7.83398 -76 -27.501z" />
    <glyph glyph-name="uni2757" unicode="&#x2757;" horiz-adv-x="852" 
d="M427 -61c74.667 0 143.334 18.333 206.001 55s112.334 86.5 149.001 149.5s55 131.833 55 206.5s-18.333 143.5 -55 206.5s-86.334 112.833 -149.001 149.5s-131.334 55 -206.001 55s-143.5 -18.333 -206.5 -55s-112.833 -86.5 -149.5 -149.5s-55 -131.833 -55 -206.5
c0 -114 40 -211 120 -291s177 -120 291 -120zM492 610l-9 -380c0 -10 -5 -15 -15 -15h-84c-8.66699 0 -13.667 5 -15 15l-8 380c0 10.667 5.33301 16 16 16h99c10.667 -0.666992 16 -6 16 -16zM380 182h93c4 0 7.66699 -1.66699 11 -5s5 -7 5 -11v-90
c0 -4 -1.66699 -7.66699 -5 -11s-7 -5 -11 -5h-93c-10 0 -15 5.33301 -15 16v90c0 10.667 5 16 15 16z" />
    <glyph glyph-name="uni275E" unicode="&#x275e;" horiz-adv-x="792" 
d="M81 28c96 24 170.667 91.999 224 203.999c34.667 72 52 143.333 52 214c0 68.667 -17 124.834 -51 168.501s-82.333 65.5 -145 65.5c-26 0 -50.167 -6.83301 -72.5 -20.5s-40.166 -32 -53.499 -55s-20 -47.833 -20 -74.5c0 -41.333 14.333 -76.333 43 -105
c29.333 -30 63.666 -45 102.999 -45c30.667 0 51.334 -12 62.001 -36c6.66699 -15.333 10 -30 10 -44c0 -30 -12 -64 -36 -102c-46.667 -72 -107.334 -108 -182.001 -108v-70c19.333 0 41.333 2.66699 66 8zM501 27.999c96 24 170.667 91.999 224 203.999
c34.667 72 52 143.333 52 214c0 68.667 -17 124.834 -51 168.501s-82.333 65.5 -145 65.5c-26 0 -50.167 -6.83301 -72.5 -20.5s-40.166 -32 -53.499 -55s-20 -47.833 -20 -74.5s6.66699 -51.5 20 -74.5s31.166 -41.333 53.499 -55s46.5 -20.5 72.5 -20.5
c30.667 0 51.334 -12 62.001 -36c6.66699 -15.333 10 -30 10 -44c0 -30 -12 -64 -36 -102c-46.667 -72 -107.334 -108 -182.001 -108v-70c19.333 0 41.333 2.66699 66 8z" />
    <glyph glyph-name="uni2795" unicode="&#x2795;" horiz-adv-x="870" 
d="M224.5 713.5c-64.333 -37.667 -115.333 -88.667 -153 -153s-56.5 -134.5 -56.5 -210.5s18.833 -146.167 56.5 -210.5s88.667 -115.333 153 -153s134.5 -56.5 210.5 -56.5s146.167 18.833 210.5 56.5s115.333 88.667 153 153s56.5 134.5 56.5 210.5
s-18.833 146.167 -56.5 210.5s-88.667 115.333 -153 153s-134.5 56.5 -210.5 56.5s-146.167 -18.833 -210.5 -56.5zM385 300h-202v102h202v202h102v-202h200v-102h-200v-202h-102v202z" />
    <glyph glyph-name="uni2796" unicode="&#x2796;" horiz-adv-x="870" 
d="M224.5 713.5c-64.333 -37.667 -115.333 -88.667 -153 -153s-56.5 -134.5 -56.5 -210.5s18.833 -146.167 56.5 -210.5s88.667 -115.333 153 -153s134.5 -56.5 210.5 -56.5s146.167 18.833 210.5 56.5s115.333 88.667 153 153s56.5 134.5 56.5 210.5
s-18.833 146.167 -56.5 210.5s-88.667 115.333 -153 153s-134.5 56.5 -210.5 56.5s-146.167 -18.833 -210.5 -56.5zM183 402h504v-102h-504v102z" />
    <glyph glyph-name="uni27A1" unicode="&#x27a1;" horiz-adv-x="760" 
d="M15 212h350v-192l380 330l-380 330v-190h-350v-278z" />
    <glyph glyph-name="uni27A2" unicode="&#x27a2;" horiz-adv-x="890" 
d="M872 730c1.33301 2.66699 2.00098 6.66602 2.00098 11.999c0 10.667 -4.16699 19.834 -12.5 27.501s-17.833 11.167 -28.5 10.5c-2.66699 0 -6 -0.666992 -10 -2c-16 -4 -42.333 -16 -79 -36l-33 -18c-173.333 -83.333 -405.333 -206 -696 -368l380 -56l54 -380l66 118
c159.333 295.333 260.666 488 303.999 578l24 49c11.333 23.333 21 45 29 65zM771.001 671.999l-276 -514l-28 234z" />
    <glyph glyph-name="uni27A6" unicode="&#x27a6;" horiz-adv-x="930" 
d="M555 690l-0.000976562 -192.001c-82.667 0 -157.667 -17.667 -225 -53c-63.333 -34 -114.166 -71.833 -152.499 -113.5s-71.5 -92.167 -99.5 -151.5c-22 -44.667 -36.5 -76.334 -43.5 -95.001s-13.5 -43.667 -19.5 -75c38 66.667 80.5 117.334 127.5 152.001
s102.5 58.334 166.5 71.001s146 19 246 19v-218l360 334z" />
    <glyph glyph-name="uni27F2" unicode="&#x27f2;" horiz-adv-x="970" 
d="M547 -84c74.667 0 143.166 18.499 205.499 55.499s111.666 86.833 147.999 149.5s54.5 131 54.5 205s-18.167 142.333 -54.5 205s-85.666 112.5 -147.999 149.5s-130.833 55.5 -205.5 55.5c-72.667 0 -140.167 -18 -202.5 -54s-112.166 -84.667 -149.499 -146
s-56 -128 -56 -200h-124l184 -204l184 204h-142c0 54 14 103.833 42 149.5s65.5 81.834 112.5 108.501s97.5 40 151.5 40c55.333 0 106.333 -13.833 153 -41.5s83.834 -65 111.501 -112s41.5 -98.5 41.5 -154.5s-13.833 -107.5 -41.5 -154.5s-64.834 -84.333 -111.501 -112
s-97.667 -41.5 -153 -41.5c-65.333 0 -126 20 -182 60l-70 -74c72.667 -58.667 156.667 -88 252 -88z" />
    <glyph glyph-name="uni27F3" unicode="&#x27f3;" horiz-adv-x="970" 
d="M774.5 562.5c-37 61 -86.5 109.168 -148.5 144.501s-129.667 53 -203 53c-112 0 -208 -40 -288 -120s-120 -176.667 -120 -290c0 -74.667 18.333 -143.334 55 -206.001s86.334 -112.334 149.001 -149.001s130.667 -55 204 -55c95.333 0 179.333 29.333 252 88l-70 76
c-52 -40 -112.667 -60 -182 -60c-55.333 0 -106.333 13.833 -153 41.5s-83.834 64.834 -111.501 111.501s-41.5 97.667 -41.5 153c0 56 13.833 107.5 41.5 154.5s64.834 84.333 111.501 112s97.667 41.5 153 41.5c54 0 104.167 -13 150.5 -39s83.666 -61.667 111.999 -107
s43.5 -95.333 45.5 -150h-144l184 -206l184 206h-122c-2 72.667 -21.5 139.5 -58.5 200.5z" />
    <glyph glyph-name="uni2B05" unicode="&#x2b05;" horiz-adv-x="760" 
d="M745 490h-352v190l-378 -330l378 -330v192h352v278z" />
    <glyph glyph-name="uni2B06" unicode="&#x2b06;" horiz-adv-x="690" 
d="M207 336v-350h276v350h192l-330 380l-330 -380h192z" />
    <glyph glyph-name="uni2B07" unicode="&#x2b07;" horiz-adv-x="690" 
d="M207 716v-350h-192l330 -380l330 380h-192v350h-276z" />
    <glyph glyph-name="uni2B0C" unicode="&#x2b0c;" horiz-adv-x="442" 
d="M17 145c-0.666992 -1.33301 -1 -3.66699 -1 -7c0 -7.33301 4 -15 12 -23l166 -164c7.33301 -8 16.333 -12 27 -12s20 4 28 12l164 164c8.66699 8.66699 13 16.667 13 24c0 11.333 -10 17 -30 17h-104v388h104c20.667 0 31 5.66699 31 17
c0 7.33301 -4.33301 15.333 -13 24l-165 164c-8 8 -17.333 12 -28 12c-11.333 0 -20.333 -4 -27 -12l-165 -164c-8.66699 -10 -13 -18 -13 -24c0 -11.333 10 -17 30 -17h105v-388h-105c-16 0 -25.667 -3.66699 -29 -11z" />
    <glyph glyph-name="uni2B0D" unicode="&#x2b0d;" horiz-adv-x="852" 
d="M215 144c12 0 18.001 10 18.001 30v104h387v-104c0 -20.667 5.66699 -31 17 -31c7.33301 0 15.333 4.33301 24 13l165 166c7.33301 7.33301 11 16.333 11 27s-3.66699 19.667 -11 27l-165 166c-8.66699 8 -16.667 12 -24 12c-11.333 0 -17 -10 -17 -30v-105h-387v106
c0 20 -6 30 -18 30c-6.66699 0 -14.334 -4.33301 -23.001 -13l-165 -166c-7.33301 -7.33301 -11 -16.333 -11 -27s3.66699 -19.667 11 -27l165 -165c8 -8.66699 15.667 -13 23 -13z" />
    <glyph glyph-name="uni2ECF" unicode="&#x2ecf;" horiz-adv-x="822" 
d="M15 313c0 -5.33301 1.33105 -10.332 3.99805 -14.999c6 -14.667 17 -22 33 -22h718c10.667 0 19.334 3.66699 26.001 11s10 15.666 10 24.999c0 10 -3.66699 18.333 -11 25l-359 359c-7.33301 7.33301 -15.666 11 -24.999 11c-10 0 -18.667 -3.66699 -26 -11l-359 -359
c-7.33301 -8.66699 -11 -16.667 -11 -24zM794.998 3.50098c7.33301 7 11 15.5 11 25.5v102c0 10 -3.66699 18.5 -11 25.5s-15.666 10.5 -24.999 10.5h-718c-10 0 -18.5 -3.5 -25.5 -10.5s-10.5 -15.5 -10.5 -25.5v-102c0 -10 3.5 -18.5 10.5 -25.5s15.5 -10.5 25.5 -10.5
h718c9.33301 0 17.666 3.5 24.999 10.5z" />
    <glyph glyph-name="uniE003" unicode="&#xe003;" horiz-adv-x="1030" 
d="M29.5 585c-9.66699 -10 -14.5 -21.667 -14.5 -35s5.16699 -25 15.5 -35s21.833 -15 34.5 -15h300c12.667 0 24.167 5 34.5 15s15.5 21.667 15.5 35s-4.83301 25 -14.5 35s-21.5 15 -35.5 15h-300c-14 0 -25.833 -5 -35.5 -15zM765 600c-33.333 0 -50 -10 -50 -30v-170
h-164c-20 0 -30 -16.667 -30 -50s10 -50 30 -50h164v-170c0 -20 16.667 -30 50 -30s50 10 50 30v170h170c20 0 30 16.667 30 50s-10 50 -30 50h-170v170c0 20 -16.667 30 -50 30zM29.5 385c-9.66699 -10 -14.5 -21.667 -14.5 -35s5.16699 -25 15.5 -35s21.833 -15 34.5 -15
h300c12.667 0 24.167 5 34.5 15s15.5 21.667 15.5 35s-4.83301 25 -14.5 35s-21.5 15 -35.5 15h-300c-14 0 -25.833 -5 -35.5 -15zM29.5 185c-9.66699 -10 -14.5 -21.667 -14.5 -35s5.16699 -25 15.5 -35s21.833 -15 34.5 -15h300c12.667 0 24.167 5 34.5 15
s15.5 21.667 15.5 35s-4.83301 25 -14.5 35s-21.5 15 -35.5 15h-300c-14 0 -25.833 -5 -35.5 -15z" />
    <glyph glyph-name="uniE005" unicode="&#xe005;" horiz-adv-x="730" 
d="M29.5 585c-9.66699 -10 -14.5 -21.667 -14.5 -35s5.16699 -25 15.5 -35s21.833 -15 34.5 -15h50c12.667 0 24.167 5 34.5 15s15.5 21.667 15.5 35s-5.16699 25 -15.5 35s-21.833 15 -34.5 15h-50c-14 0 -25.833 -5 -35.5 -15zM699.5 515c10.333 10 15.5 21.667 15.5 35
s-4.83301 25 -14.5 35s-21.5 15 -35.5 15h-350c-12.667 0 -24.167 -5 -34.5 -15s-15.5 -21.667 -15.5 -35s5.16699 -25 15.5 -35s21.833 -15 34.5 -15h350c12.667 0 24.167 5 34.5 15zM29.5 385c-9.66699 -10 -14.5 -21.667 -14.5 -35s5.16699 -25 15.5 -35
s21.833 -15 34.5 -15h50c12.667 0 24.167 5 34.5 15s15.5 21.667 15.5 35s-5.16699 25 -15.5 35s-21.833 15 -34.5 15h-50c-14 0 -25.833 -5 -35.5 -15zM280.5 385c-10.333 -10 -15.5 -21.667 -15.5 -35s5.16699 -25 15.5 -35s21.833 -15 34.5 -15h350
c12.667 0 24.167 5 34.5 15s15.5 21.667 15.5 35s-4.83301 25 -14.5 35s-21.5 15 -35.5 15h-350c-12.667 0 -24.167 -5 -34.5 -15zM29.5 185c-9.66699 -10 -14.5 -21.667 -14.5 -35s5.16699 -25 15.5 -35s21.833 -15 34.5 -15h50c12.667 0 24.167 5 34.5 15
s15.5 21.667 15.5 35s-5.16699 25 -15.5 35s-21.833 15 -34.5 15h-50c-14 0 -25.833 -5 -35.5 -15zM280.5 185c-10.333 -10 -15.5 -21.667 -15.5 -35s5.16699 -25 15.5 -35s21.833 -15 34.5 -15h350c12.667 0 24.167 5 34.5 15s15.5 21.667 15.5 35s-4.83301 25 -14.5 35
s-21.5 15 -35.5 15h-350c-12.667 0 -24.167 -5 -34.5 -15z" />
    <glyph glyph-name="uniE4AD" unicode="&#xe4ad;" horiz-adv-x="760" 
d="M393 162h352v378h-352v190l-378 -380l378 -380v192z" />
    <glyph glyph-name="uniE4AE" unicode="&#xe4ae;" horiz-adv-x="760" 
d="M15 162h350v-192l380 380l-380 380v-190h-350v-378z" />
    <glyph glyph-name="uniE4AF" unicode="&#xe4af;" horiz-adv-x="790" 
d="M207 336v-350h376v350h192l-380 380l-380 -380h192z" />
    <glyph glyph-name="uniE4B0" unicode="&#xe4b0;" horiz-adv-x="790" 
d="M207 716v-350h-192l380 -380l380 380h-192v350h-376z" />
    <glyph glyph-name="uniE700" unicode="&#xe700;" horiz-adv-x="1030" 
d="M635 128c-42.667 15.333 -75.832 30.5049 -99.499 45.5049s-40.667 31.667 -51 50s-15.5 41.166 -15.5 68.499c0 13.333 7.66699 29.666 23 48.999c15.333 18 26.333 42.333 33 73c2 14 9.66699 22.667 23 26c12.667 3.33301 20.334 23.333 23.001 60
c0 23.333 -6 37.333 -18 42l14 88c2 26 -3.83301 52.167 -17.5 78.5s-36 48.166 -67 65.499s-70.167 26 -117.5 26c-76 0 -129.333 -19.333 -160 -58c-27.333 -34.667 -41 -71.667 -41 -111c0 -18.667 3.33301 -42 10 -70l3 -19l-4 -4c-9.33301 -4 -14 -16.667 -14 -38
c2.66699 -32 11 -52.333 25 -61s21.667 -17 23 -25c5.33301 -32 15.666 -56.667 30.999 -74s23 -33.333 23 -48c0 -27.333 -4.83301 -50.333 -14.5 -69s-26.334 -35.334 -50.001 -50.001s-56.834 -29.667 -99.501 -45c-33.333 -8.66699 -60.666 -17.334 -81.999 -26.001
v-202h800v106c0 38 -60 78.667 -180 122zM765.002 400.005h-150v-100h150v-150h100v150h150v100h-150v150h-100v-150z" />
    <glyph glyph-name="uniE701" unicode="&#xe701;" horiz-adv-x="463" 
d="M172 -37c0 -17.333 7.66699 -25.332 23 -23.999c6.66699 1.33301 13 3.66602 19 6.99902l234 122v693c-10 0 -19 -7 -27 -21l-117 -236l-260 -38c-18.667 -2 -28 -9.33301 -28 -22c0 -8 5 -17 15 -27l186 -183l-44 -259c-0.666992 -2.66699 -1 -6.66699 -1 -12z" />
    <glyph glyph-name="uniE702" unicode="&#xe702;" horiz-adv-x="852" 
d="M427 -61c74.667 0 143.334 18.333 206.001 55s112.334 86.5 149.001 149.5s55 131.833 55 206.5s-18.333 143.5 -55 206.5s-86.334 112.833 -149.001 149.5s-131.334 55 -206.001 55s-143.5 -18.333 -206.5 -55s-112.833 -86.5 -149.5 -149.5s-55 -131.833 -55 -206.5
c0 -114 40 -211 120 -291s177 -120 291 -120zM426 637c52 0 100.167 -12.833 144.5 -38.5s79.333 -60.5 105 -104.5s38.5 -92 38.5 -144s-12.833 -100 -38.5 -144s-60.667 -78.833 -105 -104.5s-92.5 -38.5 -144.5 -38.5s-100 12.833 -144 38.5s-78.833 60.5 -104.5 104.5
s-38.5 92 -38.5 144c0 79.333 28 147 84 203s123.667 84 203 84zM356 167l59.002 0.000976562c14 0 26 5 36 15l210 210c4 3.33301 6 8 6 14s-2 11 -6 15l-59 59c-5.33301 3.33301 -10 5 -14 5c-6 0 -10.667 -1.66699 -14 -5l-174 -175c-6 -4.66699 -11 -7 -15 -7
c-3.33301 0 -8 2.33301 -14 7l-92 92c-2.66699 4 -7.33398 6 -14.001 6s-11.334 -2 -14.001 -6l-59 -59c-4 -2.66699 -6 -7.33398 -6 -14.001c0 -6 2 -10.667 6 -14l128 -128c10 -10 22 -15 36 -15z" />
    <glyph glyph-name="uniE703" unicode="&#xe703;" horiz-adv-x="852" 
d="M427 -61c74.667 0 143.334 18.333 206.001 55s112.334 86.5 149.001 149.5s55 131.833 55 206.5s-18.333 143.5 -55 206.5s-86.334 112.833 -149.001 149.5s-131.334 55 -206.001 55s-143.5 -18.333 -206.5 -55s-112.833 -86.5 -149.5 -149.5s-55 -131.833 -55 -206.5
c0 -114 40 -211 120 -291s177 -120 291 -120zM426 637c52 0 100.167 -12.833 144.5 -38.5s79.333 -60.5 105 -104.5s38.5 -92 38.5 -144s-12.833 -100 -38.5 -144s-60.667 -78.833 -105 -104.5s-92.5 -38.5 -144.5 -38.5s-100 12.833 -144 38.5s-78.833 60.5 -104.5 104.5
s-38.5 92 -38.5 144c0 79.333 28 147 84 203s123.667 84 203 84zM327 171c5.33301 0 10.002 2 14.002 6l85 86l86 -86c4 -4 9 -6 15 -6c5.33301 0 10 2 14 6l58 58c5.33301 5.33301 8 10.333 8 15s-2.66699 9.66699 -8 15l-85 85l85 85c5.33301 5.33301 8 10.333 8 15
s-2.66699 9.66699 -8 15l-58 58c-4.66699 4.66699 -9.66699 7 -15 7c-4.66699 0 -9.33398 -2.33301 -14.001 -7l-86 -86l-85 86c-4.66699 4.66699 -9.66699 7 -15 7c-4.66699 0 -9.33398 -2.33301 -14.001 -7l-58 -58c-4.66699 -4.66699 -7 -9.66699 -7 -15
s2.33301 -10.333 7 -15l85 -85l-85 -85c-4.66699 -4.66699 -7 -9.66699 -7 -15s2.33301 -10.333 7 -15l58 -58c4 -4 9 -6 15 -6z" />
    <glyph glyph-name="uniE704" unicode="&#xe704;" horiz-adv-x="950" 
d="M473 810c-83.333 0 -160.334 -20.999 -231.001 -62.999s-126.5 -98.833 -167.5 -170.5s-60.833 -149.167 -59.5 -232.5c0 -82 20.833 -157.833 62.5 -227.5s97.667 -124.834 168 -165.501s146.833 -61 229.5 -61s159.334 20.667 230.001 62s126.667 97.5 168 168.5
s62 148.167 62 231.5c0 128.667 -46.667 238 -140 328c-90.667 86.667 -198 130 -322 130zM342.499 586.001c29.667 29.333 72.501 44 128.501 44c57.333 0 103 -13.333 137 -40s51 -64.667 51 -114c0 -28.667 -8.66699 -54.667 -26 -78
c-6.66699 -10.667 -25.334 -27.334 -56.001 -50.001l-28 -18c-21.333 -16 -32 -37.333 -32 -64v-4h-108v8c3.33301 39.333 9.33301 65.333 18 78c9.33301 10 22 21.333 38 34c-0.666992 -0.666992 7 5 23 17l27 20c18.667 17.333 28 35 28 53
c0 16.667 -5.33301 31.334 -16 44.001c-8 13.333 -25.333 20 -52 20c-24.667 0 -42.667 -8 -54 -24c-10.667 -18.667 -16 -36.667 -16 -54v-4h-110v4c2 56 17.833 98.667 47.5 128zM418 91.501c-12.667 13 -19.001 29.168 -19.001 48.501c1.33301 18.667 8.33301 34 21 46
s28.334 18 47.001 18h2c20 0 36.333 -6.33301 49 -19s18.334 -29 17.001 -49c0 -18.667 -6.5 -34.334 -19.5 -47.001s-29.167 -19 -48.5 -19h-2c-18.667 1.33301 -34.334 8.5 -47.001 21.5z" />
    <glyph glyph-name="uniE705" unicode="&#xe705;" horiz-adv-x="950" 
d="M473 810c-83.333 0 -160.334 -20.999 -231.001 -62.999s-126.5 -98.833 -167.5 -170.5s-60.833 -149.167 -59.5 -232.5c0 -82 20.833 -157.833 62.5 -227.5s97.667 -124.834 168 -165.501s146.833 -61 229.5 -61s159.334 20.667 230.001 62s126.667 97.5 168 168.5
s62 148.167 62 231.5c0 128.667 -46.667 238 -140 328c-90.667 86.667 -198 130 -322 130zM448.499 539.501c-11.667 10.333 -16.832 25.167 -15.499 44.5c0 18.667 8 35.667 24 51s37.333 23 64 23c40 0 60 -19.333 60 -58c0 -22 -8 -40.167 -24 -54.5s-36 -21.5 -60 -21.5
c-20.667 0 -36.834 5.16699 -48.501 15.5zM488.001 91.502c-36 -18.333 -65 -27.501 -87 -27.501c-28 0 -42 17 -42 51c0 12.667 2.66699 30.334 8 53.001l36 152c4 12 6 20.667 6 26s-2 8 -6 8c-14.667 0 -39.334 -11.333 -74.001 -34l-16 26
c34.667 29.333 72.334 54 113.001 74s71 30 91 30c20.667 0 31 -13.667 31 -41c0 -14.667 -3 -33 -9 -55l-42 -160c-3.33301 -12 -5 -20.333 -5 -25c0 -8.66699 3 -13 9 -13c16 0 40 12 72 36l18 -24c-32.667 -32.667 -67 -58.167 -103 -76.5z" />
    <glyph glyph-name="uniE708" unicode="&#xe708;" 
d="M439.5 401c7.66699 7.33301 11.5 16.666 11.5 27.999v277c0 11.333 -3.83301 20.666 -11.5 27.999s-17.167 11 -28.5 11h-355c-11.333 0 -20.833 -3.66699 -28.5 -11s-11.5 -16.666 -11.5 -27.999v-277c0 -11.333 3.83301 -20.666 11.5 -27.999s17.167 -11 28.5 -11h355
c11.333 0 20.833 3.66699 28.5 11zM541 401c7.33301 -7.33301 16.666 -11.002 27.999 -11.002h356c10.667 0 19.667 3.66699 27 11s11 16.666 11 27.999v277c0 10.667 -3.83301 19.834 -11.5 27.501s-16.5 11.5 -26.5 11.5h-356c-11.333 0 -20.666 -3.66699 -27.999 -11
s-11 -16.666 -11 -27.999v-277c0 -11.333 3.66699 -20.666 11 -27.999zM439.5 -33.502c7.66699 7.66699 11.5 17.167 11.5 28.5v276c0 11.333 -3.83301 20.833 -11.5 28.5s-17.167 11.5 -28.5 11.5h-355c-11.333 0 -20.833 -3.83301 -28.5 -11.5s-11.5 -17.167 -11.5 -28.5
v-276c0 -11.333 3.83301 -20.833 11.5 -28.5s17.167 -11.5 28.5 -11.5h355c11.333 0 20.833 3.83301 28.5 11.5zM952 -33.502c7.33301 7.66699 11 17.167 11 28.5v276c0 11.333 -3.66699 20.833 -11 28.5s-16.333 11.5 -27 11.5h-356
c-11.333 0 -20.666 -3.83301 -27.999 -11.5s-11 -17.167 -11 -28.5v-276c0 -11.333 3.66699 -20.833 11 -28.5s16.666 -11.5 27.999 -11.5h356c10.667 0 19.667 3.83301 27 11.5z" />
    <glyph glyph-name="uniE70A" unicode="&#xe70a;" horiz-adv-x="1030" 
d="M165.5 523.5c-56.333 -37.667 -99.8311 -80.5 -130.498 -128.5c-13.333 -21.333 -20 -36.333 -20 -45c0 -8 6.66699 -22.667 20 -44c34.667 -51.333 88.667 -101 162 -149c38.667 -26 86.834 -47 144.501 -63s115.5 -24 173.5 -24c60 0 118.333 8.33301 175 25
c59.333 16.667 117.166 44 173.499 82s100.166 81 131.499 129c13.333 21.333 20 36 20 44c0 8.66699 -6.66699 23.667 -20 45c-30.667 46.667 -84.667 96 -162 148c-38.667 26 -86.834 47 -144.501 63s-115.5 24 -173.5 24c-58.667 0 -116.667 -8 -174 -24
c-60.667 -17.333 -119.167 -44.833 -175.5 -82.5zM515.002 136c-40.667 0 -78 9.66602 -112 28.999s-60.833 45.333 -80.5 78s-29.5 68.334 -29.5 107.001c0 39.333 9.83301 75.5 29.5 108.5s46.5 59.167 80.5 78.5s71.333 29 112 29s78 -9.66699 112 -29
s60.833 -45.5 80.5 -78.5s29.5 -69.167 29.5 -108.5c0 -58.667 -21.667 -109 -65 -151c-42.667 -42 -95 -63 -157 -63zM519.002 407.999l3.99902 13.002c2 7.33301 3 15.666 3 24.999c-0.666992 8 -4.33398 12 -11.001 12c-30.667 0 -56.667 -10.333 -78 -31
s-32 -46.334 -32 -77.001c0 -29.333 10.833 -54.333 32.5 -75s47.5 -31 77.5 -31s56.167 10.333 78.5 31s33.5 45.667 33.5 75c-1.33301 6.66699 -6.33301 10 -15 10c-5.33301 0 -16 -2 -32 -6c-4.66699 -0.666992 -12.167 -2.33398 -22.5 -5.00098s-19.166 -4 -26.499 -4
s-12.666 1.66699 -15.999 5c-4 5.33301 -6 11.333 -6 18c0 2.66699 1.33301 9.33398 4 20.001l3 8z" />
    <glyph glyph-name="uniE70B" unicode="&#xe70b;" 
d="M490 666c-47.333 0 -92 -6.33398 -134 -19.001c-135.333 -38 -244.666 -123 -327.999 -255c-8 -14 -12 -28.333 -12 -43c0 -14 4 -27.667 12 -41c64 -100.667 147.667 -175.667 251 -225l-34 -59c-2.66699 -5.33301 -4 -9.33301 -4 -12c0 -5.33301 4 -10.666 12 -15.999
l69 -39l10 -2c8 0 13.667 3.66699 17 11l398 710c1.33301 4 2 7 2 9c0 8 -3.66699 14.333 -11 19l-68 39c-2.66699 1.33301 -6.33398 2 -11.001 2c-7.33301 0 -13 -3.66699 -17 -11l-45 -81c-41.333 8.66699 -77 13 -107 13zM751.5 105.999
c78.333 46.667 145.167 113.999 200.5 201.999c8.66699 14.667 13 29 13 43c0 14.667 -4.33301 28.334 -13 41.001c-45.333 70.667 -99.666 128.667 -162.999 174l-39 -71c52 -38.667 97 -87 135 -145c-40.667 -65.333 -90.334 -118.333 -149.001 -159
s-124.667 -65.667 -198 -75l-45 -82c94 1.33301 180.167 25.333 258.5 72zM344.001 455.998c12.667 28.667 31.167 51.5 55.5 68.5s52.833 25.5 85.5 25.5c8.66699 0 15.834 -2.83301 21.501 -8.5s8.5 -12.5 8.5 -20.5s-2.83301 -15 -8.5 -21s-12.834 -9 -21.501 -9
c-26 0 -48.167 -9.16699 -66.5 -27.5s-27.5 -40.833 -27.5 -67.5c0 -7.33301 -3 -14 -9 -20s-13 -9 -21 -9s-14.833 3 -20.5 9s-8.5 12.667 -8.5 20c0 21.333 4 41.333 12 60zM95.001 349.998c50.667 82.667 118 146.001 202 190.001c-32 -44.667 -48 -92.667 -48 -144
c0 -79.333 32.333 -143 97 -191l-29 -54c-90 41.333 -164 107.666 -222 198.999zM632.001 210.999c60 48 90 109.667 90 185c0 18 -1.33301 32 -4 42l-146 -262c19.333 7.33301 39.333 19 60 35z" />
    <glyph glyph-name="uniE70C" unicode="&#xe70c;" horiz-adv-x="990" 
d="M951 631c16 34 24 69.335 24 106.002c0 30.667 -5.33301 61.667 -16 93c-2.66699 14.667 -11 22 -25 22c-2 0 -6.33301 -0.666992 -13 -2c-14 -6 -21 -14.667 -21 -26c0 -4 1 -8.66699 3 -14c8.66699 -24 13 -48.667 13 -74c0 -75.333 -42.333 -146 -127 -212l-28 40
c-12 17.333 -28 26 -48 26h-158c-18.667 0 -36.667 -6 -54 -18l-464 -328c-14 -8.66699 -21 -22 -21 -40c0 -10.667 3 -21.334 9 -32.001l210 -304c8 -12 17.667 -18 29 -18c10 0 21.667 4.66699 35 14l464 328c15.333 10.667 27.333 26 36 46l48 158
c2.66699 6 4 12.667 4 20c0 11.333 -3.33301 22.666 -10 33.999l-18 24c55.333 42 98 94.333 128 157zM778 429.002c0 -26.667 -11.666 -49 -34.999 -67c-13.333 -8.66699 -28 -13 -44 -13c-27.333 0 -49.333 11 -66 33c-10 16 -15 32 -15 48c0 28 11.667 49.333 35 64
c14 11.333 29 17 45 17s31.667 -5.66699 47 -17l-24 -14c-13.333 -5.33301 -20 -13.333 -20 -24c0 -2.66699 1.33301 -8 4 -16c7.33301 -12 16.666 -18 27.999 -18c3.33301 0 7.33301 1.33301 12 4l32 16c0.666992 -2.66699 1 -7 1 -13z" />
    <glyph glyph-name="uniE70D" unicode="&#xe70d;" horiz-adv-x="996" 
d="M29 401c8.66699 -20 18.999 -36.667 30.999 -50l344 -383c10.667 -12.667 24.667 -19 42 -19c18 0 33.333 6.33301 46 19l270 269c12 12 18 26.333 18 43c0 17.333 -6 32.333 -18 45l-344 384c-2.66699 3.33301 -9.66699 9 -21 17c-29.333 18 -57.666 27 -84.999 27h-234
c-16.667 0 -31.167 -6.16699 -43.5 -18.5s-18.5 -26.833 -18.5 -43.5v-234c0 -17.333 4.33301 -36 13 -56zM517.999 709l344 -384.001c12 -12 18 -26.667 18 -44s-6 -32 -18 -44l-264 -264l6 -7c12 -12 26.667 -18 44 -18c18 0 33 6 45 18l269 269c12 12 18 26.667 18 44
s-6 32.333 -18 45l-344 384c-10 11.333 -25.667 21.5 -47 30.5s-41 13.5 -59 13.5h-90c44 -5.33301 76 -19.666 96 -42.999zM133.999 634.999c12 12 26.332 17.999 42.999 17.999c16 0 30 -6.16699 42 -18.5s18 -26.5 18 -42.5c0 -15.333 -6.16699 -29.166 -18.5 -41.499
s-26.166 -18.5 -41.499 -18.5c-16 0 -30.167 6 -42.5 18s-18.5 26 -18.5 42c0 16.667 6 31 18 43z" />
    <glyph glyph-name="uniE70F" unicode="&#xe70f;" 
d="M946 -27.5c11.333 11.667 17 25.5 17 41.5v672c0 16 -5.66699 29.833 -17 41.5s-25 17.5 -41 17.5h-830c-16 0 -29.833 -5.83301 -41.5 -17.5s-17.5 -25.5 -17.5 -41.5v-672c0 -16 5.83301 -29.833 17.5 -41.5s25.5 -17.5 41.5 -17.5h830c16 0 29.667 5.83301 41 17.5z
M315 692v-47h-162v47h162zM385 615l8 48h492v-119h-790v71h290zM317 393c14.667 34.667 37.002 62.3311 67.002 82.998s65.333 31 106 31c24 0 48 -5 72 -15c35.333 -14.667 63.333 -37 84 -67s31 -65.333 31 -106c0 -24 -5 -48 -15 -72
c-14.667 -35.333 -36.834 -63.333 -66.501 -84s-64.834 -31 -105.501 -31c-24.667 0 -49 5 -73 15c-35.333 14.667 -63.333 36.834 -84 66.501s-31 64.834 -31 105.501c0 25.333 5 50 15 74zM372.002 268.997c21.333 -52 60.667 -78 118 -78c15.333 0 32 3.66699 50 11
c52 21.333 78 60.333 78 117c0 18 -3 35 -9 51c-10 24 -25.333 43 -46 57s-45 21 -73 21c-16 0 -33 -3.66699 -51 -11c-24 -10 -43 -25.167 -57 -45.5s-21 -44.5 -21 -72.5c0 -15.333 3.66699 -32 11 -50zM455.503 353.497
c-9.66699 -9.66699 -14.501 -21.1689 -14.501 -34.502c0 -5.33301 -2.16699 -10.166 -6.5 -14.499s-9.16602 -6.5 -14.499 -6.5c-6 0 -11.167 2.33301 -15.5 7s-6.5 9.33398 -6.5 14.001c0 25.333 9 47.166 27 65.499s39.667 27.5 65 27.5c6 0 11.167 -2.16699 15.5 -6.5
s6.5 -9.5 6.5 -15.5c0 -5.33301 -2.33301 -10.166 -7 -14.499s-9.66699 -6.5 -15 -6.5v-1c-13.333 0 -24.833 -4.83301 -34.5 -14.5zM885.002 95.9951v-59h-790v59h790z" />
    <glyph glyph-name="uniE711" unicode="&#xe711;" horiz-adv-x="1030" 
d="M895 57c36.667 20.667 65.8359 48.833 87.5029 84.5s32.5 75.167 32.5 118.5s-10.833 82.833 -32.5 118.5s-50.834 63.834 -87.501 84.501s-76.667 31 -120 31c-11.333 0 -24.666 -1.33301 -39.999 -4c-10.667 35.333 -28.167 67 -52.5 95s-54 50.167 -89 66.5
s-72.5 24.5 -112.5 24.5c-48.667 0 -93.334 -11.667 -134.001 -35s-72.834 -54.833 -96.501 -94.5s-35.5 -83.167 -35.5 -130.5c0 -10.667 0.666992 -23.334 2 -38.001c-6.66699 1.33301 -13.334 2 -20.001 2c-32.667 0 -63 -8 -91 -24s-50.167 -37.5 -66.5 -64.5
s-24.5 -56.833 -24.5 -89.5c0 -31.333 8.33301 -60.5 25 -87.5s39 -48.5 67 -64.5s58 -24 90 -24h248v190h-104l174 230l176 -230h-106v-190h190c43.333 0 83.333 10.333 120 31z" />
    <glyph glyph-name="uniE712" unicode="&#xe712;" horiz-adv-x="930" 
d="M870.5 142.5c-19 42.333 -44.999 87.1709 -77.999 134.504s-71.833 88.666 -116.5 123.999c-37.333 29.333 -82.333 52.833 -135 70.5s-107.334 26.5 -164.001 26.5v192l-362 -322l362 -334v218c99.333 0 180.833 -6.33301 244.5 -19s119 -36.334 166 -71.001
s89.5 -85.334 127.5 -152.001l-6 28c-6.66699 27.333 -19.5 62.166 -38.5 104.499z" />
    <glyph glyph-name="uniE713" unicode="&#xe713;" horiz-adv-x="1030" 
d="M15 368l362 -334v138l-212 196l212 188v134zM627 34l0.00195312 217.998c65.333 0 119.166 -6.16699 161.499 -18.5s81.333 -35.666 117 -69.999s72.167 -85.5 109.5 -153.5l-4 50c-6 74.667 -35 163.334 -87 266.001c-26.667 50.667 -66.334 92 -119.001 124
s-112 48 -178 48v192l-362 -322z" />
    <glyph glyph-name="uniE714" unicode="&#xe714;" horiz-adv-x="1030" 
d="M673 648c-1.33301 0.666992 -3.66602 0.998047 -6.99902 0.998047c-12 0 -22.5 -4.5 -31.5 -13.5s-13.5 -19.167 -13.5 -30.5s4.66699 -21.666 14 -30.999l248 -224l-248 -226c-7.33301 -7.33301 -12 -15.333 -14 -24c-0.666992 -1.33301 -1 -3.66602 -1 -6.99902
c0 -11.333 4.66699 -21.5 14 -30.5s20 -13.5 32 -13.5c11.333 0 21.666 4.33301 30.999 13l318 288l-318 286c-8 7.33301 -16 11.333 -24 12zM411 603.998c0 12.667 -5.33301 23.332 -16 31.999c-10 10 -20 15 -30 15s-20 -5 -30 -15l-320 -286l320 -288
c10 -10 20 -15 30 -15s20 5 30 15c10.667 8.66699 16 19.334 16 32.001c0 12 -5.33301 22 -16 30l-246 226l246 224c10.667 8 16 18 16 30z" />
    <glyph glyph-name="uniE715" unicode="&#xe715;" horiz-adv-x="1030" 
d="M683 740l-0.00390625 -156.001c-52 0 -100.333 -7.33301 -145 -22c-43.333 -13.333 -77.666 -30 -102.999 -50s-50 -46.667 -74 -80c-23.333 -33.333 -42.5 -71.333 -57.5 -114s-22.5 -86.667 -22.5 -132c38.667 64.667 74.334 112.334 107.001 143.001
s70.834 51.5 114.501 62.5s103.834 16.5 180.501 16.5v-178l332 260zM30.4961 -25.001c10.333 -10 21.832 -15 34.499 -15h750c12.667 0 24.167 5 34.5 15s15.5 21.667 15.5 35v188l-100 -82v-56h-650v450h130l10 12c20.667 24 53.334 53.333 98.001 88h-288
c-14.667 0 -26.667 -4.66699 -36 -14s-14 -21.333 -14 -36v-550c0 -13.333 5.16699 -25 15.5 -35z" />
    <glyph glyph-name="uniE716" unicode="&#xe716;" horiz-adv-x="1010" 
d="M120 579l-49.001 -16.999c-4.66699 -2.66699 -8.66699 -7.33398 -12 -14.001l-1 -6c0 -10.667 7.66699 -16 23 -16h850c6.66699 0 12 1.83301 16 5.5s6 8.16699 6 13.5c0 7.33301 -4.66699 13 -14 17l-49 17l-28 10l-84 28.5c-17.333 5.66699 -29.666 8.5 -36.999 8.5
h-46v150h-380v-150h-44c-10.667 0 -61 -15.667 -151 -47zM32.999 450.501c-12 -13 -18 -26.5 -18 -40.5v-174c0 -14 6 -27.5 18 -40.5s24.667 -19.5 38 -19.5h98l-44 -250h760l-44 250h100c13.333 0 25.666 6.5 36.999 19.5s17 26.5 17 40.5v174
c0 14 -5.66699 27.5 -17 40.5s-23.666 19.5 -36.999 19.5h-870c-13.333 0 -26 -6.5 -38 -19.5zM784.999 26.001h-560l70 324h420z" />
    <glyph glyph-name="uniE717" unicode="&#xe717;" horiz-adv-x="1030" 
d="M265 190v262h100l-174 198l-176 -198h102v-302c0 -27.333 9.83301 -50.833 29.5 -70.5s43.167 -29.5 70.5 -29.5h448l-128 140h-272zM885.5 620.5c-19.667 19.667 -43.167 29.5 -70.5 29.5h-450l128 -140h274v-260h-102l176 -200l174 200h-100v300
c0 27.333 -9.83301 50.833 -29.5 70.5z" />
    <glyph glyph-name="uniE718" unicode="&#xe718;" horiz-adv-x="830" 
d="M44.5 670.5c-19.667 -19.667 -29.5 -43.167 -29.5 -70.5v-350c0 -26.667 10 -50 30 -70s43.333 -30 70 -30h200l200 -150v150h200c27.333 0 50.833 9.83301 70.5 29.5s29.5 43.167 29.5 70.5v350c0 28 -9.66699 51.667 -29 71s-43 29 -71 29h-600
c-27.333 0 -50.833 -9.83301 -70.5 -29.5z" />
    <glyph glyph-name="uniE720" unicode="&#xe720;" horiz-adv-x="1030" 
d="M394.5 770.5c-19.667 -19.667 -29.5 -43.167 -29.5 -70.5v-400h350l150 -150v150h50c27.333 0 50.833 9.83301 70.5 29.5s29.5 43.167 29.5 70.5v300c0 28 -9.66699 51.667 -29 71s-43 29 -71 29h-450c-27.333 0 -50.833 -9.83301 -70.5 -29.5zM45 80
c20 -20 43.333 -30 70 -30h50v-150l150 150h250c27.333 0 50.833 9.83301 70.5 29.5s29.5 43.167 29.5 70.5v92h-4l-6 -2h-350v310h-190c-27.333 0 -50.833 -9.83301 -70.5 -29.5s-29.5 -43.167 -29.5 -70.5v-300c0 -26.667 10 -50 30 -70z" />
    <glyph glyph-name="uniE722" unicode="&#xe722;" horiz-adv-x="1030" 
d="M44.5 720.5c-19.667 -19.667 -29.5 -43.167 -29.5 -70.5v-600c0 -26.667 10 -50 30 -70s43.333 -30 70 -30h800c27.333 0 50.833 9.83301 70.5 29.5s29.5 43.167 29.5 70.5v600c0 28 -9.66699 51.667 -29 71s-43 29 -71 29h-800c-27.333 0 -50.833 -9.83301 -70.5 -29.5z
M115 650h800v-600h-800v600zM215 456h250v90h-250v-90zM744 257c-12.667 10.667 -19 22.3311 -19 34.998c0 10.667 9.33301 29.334 28 56.001s28 56 28 88c0 73.333 -30 110 -90 110s-90 -36.667 -90 -110c0 -31.333 9 -60.666 27 -87.999c18 -26.667 27 -45.334 27 -56.001
c0 -28.667 -28 -50.667 -84 -66c-4 0 -6 -23.333 -6 -70h250l-4 70l-22 8c-17.333 4.66699 -32.333 12.334 -45 23.001zM215 305.997h250v90h-250v-90zM215 155.997h250v90h-250v-90z" />
    <glyph glyph-name="uniE723" unicode="&#xe723;" horiz-adv-x="1030" 
d="M441 800h-46c-13.333 0 -20 -6.66699 -20 -20v-190h-176c-14 0 -23.333 -1.33301 -28 -4c-8 -0.666992 -16.667 -4.66699 -26 -12l-120 -82c-6.66699 -4 -10 -9.33301 -10 -16s3.33301 -12 10 -16l120 -82c9.33301 -7.33301 18 -11.333 26 -12c8 -4 17.333 -6 28 -6h176
v-440c0 -13.333 6.66699 -20 20 -20h46c13.333 0 20 6.66699 20 20v860c0 13.333 -6.66699 20 -20 20zM833 690h-342.001l40 -230h302c10 0 19.333 2 28 6c2.66699 0 11.334 4 26.001 12l118 82c6.66699 4 10 9.33301 10 16s-3.33301 12 -10 16l-118 82
c-20.667 10.667 -38.667 16 -54 16z" />
    <glyph glyph-name="uniE724" unicode="&#xe724;" horiz-adv-x="530" 
d="M414.5 176.5c29 55.667 52.9961 112.5 71.9961 170.5s28.5 109 28.5 153c0 45.333 -11.167 87.166 -33.5 125.499s-52.666 68.666 -90.999 90.999s-80.166 33.5 -125.499 33.5s-87.166 -11.167 -125.499 -33.5s-68.666 -52.666 -90.999 -90.999
s-33.5 -80.166 -33.5 -125.499c0 -84 29 -182.667 87 -296c22 -42.667 49 -89 81 -139s59.333 -88.333 82 -115l62 84c29.333 39.333 58.5 86.833 87.5 142.5zM130.996 498c0 24.667 5.99902 47.168 17.999 67.501s28.333 36.5 49 48.5s43 18 67 18
c24.667 0 47.334 -6 68.001 -18s37.167 -28.333 49.5 -49s18.5 -43 18.5 -67c0 -24.667 -6.16699 -47.334 -18.5 -68.001s-29 -37.167 -50 -49.5s-43.5 -18.5 -67.5 -18.5c-36.667 0 -68 13.333 -94 40c-26.667 26.667 -40 58.667 -40 96z" />
    <glyph glyph-name="uniE727" unicode="&#xe727;" horiz-adv-x="1030" 
d="M999 600l-234.001 146c-4 3.33301 -9.33301 5 -16 5c-5.33301 0 -10.666 -1.66699 -15.999 -5l-218 -136l-216 136c-4 3.33301 -9.66699 5 -17 5c-6.66699 0 -12.334 -1.66699 -17.001 -5l-234 -146c-10.667 -6.66699 -16 -16.667 -16 -30v-584
c0 -10 3.5 -18.333 10.5 -25s14.833 -10 23.5 -10c5.33301 0 10.666 1.66699 15.999 5l216 136l218 -136c4.66699 -3.33301 10.334 -5 17.001 -5s12.334 1.66699 17.001 5l216 136l216 -136c7.33301 -4 13.333 -6 18 -6c9.33301 0 17 3.5 23 10.5s9 15.5 9 25.5v584
c0 13.333 -5.33301 23.333 -16 30zM248.999 656v-506l-168 -104v506zM482.999 552v-506l-168 104v506zM716.999 656v-506l-170 -104v506zM948.999 552v-506l-168 104v506z" />
    <glyph glyph-name="uniE728" unicode="&#xe728;" horiz-adv-x="990" 
d="M493 830c-87.333 0 -167.998 -21.8359 -241.998 -65.5029s-132.333 -102.667 -175 -177s-63 -155.5 -61 -243.5c0 -86 22 -165.5 66 -238.5s103.167 -130.667 177.5 -173s155.166 -63.166 242.499 -62.499c87.333 2 167.166 24.833 239.499 68.5
s129.5 101.834 171.5 174.501s63 152.334 63 239.001c0 134 -48.667 248 -146 342c-93.333 90.667 -205.333 136 -336 136zM642.002 0.99707c-47.333 -19.333 -96.332 -29 -146.999 -29c-48.667 0 -95.834 9.16699 -141.501 27.5s-86.5 44.833 -122.5 79.5
c-38 36 -66.667 77.5 -86 124.5s-29 95.833 -29 146.5c0 49.333 9.16699 97 27.5 143s45.166 87 80.499 123c36.667 37.333 78.667 65.666 126 84.999s96.333 29 147 29c48 0 94.833 -9.16699 140.5 -27.5s86.5 -44.833 122.5 -79.5c38 -36 66.667 -77.667 86 -125
s29 -96 29 -146c0 -48.667 -9.16699 -96 -27.5 -142s-45.166 -87.333 -80.499 -124c-36 -37.333 -77.667 -65.666 -125 -84.999zM469.003 179.997c54.667 20.667 96.333 45.667 125 75s54 73 76 131c16.667 44 28.167 77.667 34.5 101s12.5 54.333 18.5 93l-60 -10
c-40 -6.66699 -87 -20.667 -141 -42c-54 -20.667 -95.667 -46 -125 -76s-55 -74 -77 -132c-16.667 -44 -28.167 -77.667 -34.5 -101s-12.5 -54.333 -18.5 -93l60 12c40 7.33301 87.333 21.333 142 42zM633.002 489.997c-24 -89.333 -53.333 -151.333 -88 -186
c-12.667 -14.667 -29 -22 -49 -22c-18 0 -34.333 7.5 -49 22.5s-22 31.5 -22 49.5c0 19.333 7.33301 35.333 22 48c32.667 34.667 94.667 64 186 88z" />
    <glyph glyph-name="uniE729" unicode="&#xe729;" horiz-adv-x="790" 
d="M441 832h-91.999c-31.333 0 -54.666 -8.66699 -69.999 -26l-42 -48c-62.667 -12 -115.334 -30.333 -158.001 -55s-64 -48.334 -64 -71.001v-10c0 -39.333 37.333 -72.333 112 -99c76.667 -27.333 166 -41 268 -41s191.333 13.667 268 41c74.667 26.667 112 59.667 112 99
v10c0 22.667 -21.333 46.334 -64 71.001s-95.334 43 -158.001 55l-42 48c-12 17.333 -35.333 26 -70 26zM291.001 646h-84.002l106 126c6.66699 10.667 17.334 16 32.001 16h102c12.667 0 23.334 -5.33301 32.001 -16l104 -126h-84l-62 66h-82zM154.999 -64
c26.667 -18 62.833 -33.167 108.5 -45.5s89.5 -18.5 131.5 -18.5c45.333 0 90.833 6.66699 136.5 20s80.5 28 104.5 44c22 14.667 33.667 26.667 35 36l54 486c-80.667 -46.667 -190.667 -70 -330 -70s-249.333 23.333 -330 70l54 -486
c1.33301 -9.33301 13.333 -21.333 36 -36z" />
    <glyph glyph-name="uniE730" unicode="&#xe730;" horiz-adv-x="730" 
d="M44.5 770.5c-19.667 -19.667 -29.5 -43.167 -29.5 -70.5v-700c0 -26.667 10 -50 30 -70s43.333 -30 70 -30h500c27.333 0 50.833 9.83301 70.5 29.5s29.5 43.167 29.5 70.5v700c0 28 -9.66699 51.667 -29 71s-43 29 -71 29h-500c-27.333 0 -50.833 -9.83301 -70.5 -29.5z
M615 700v-700h-500v700h500z" />
    <glyph glyph-name="uniE731" unicode="&#xe731;" horiz-adv-x="730" 
d="M44.5 770.5c-19.667 -19.667 -29.5 -43.167 -29.5 -70.5v-700c0 -26.667 10 -50 30 -70s43.333 -30 70 -30h500c27.333 0 50.833 9.83301 70.5 29.5s29.5 43.167 29.5 70.5v700c0 28 -9.66699 51.667 -29 71s-43 29 -71 29h-500c-27.333 0 -50.833 -9.83301 -70.5 -29.5z
M575 504h-420v88h420v-88zM575 398v-90h-418v90h418zM155 200h420v-88h-420v88z" />
    <glyph glyph-name="uniE736" unicode="&#xe736;" horiz-adv-x="1031" 
d="M510 851c-4.66699 0 -8.33398 -0.333984 -11.001 -1.00098l-454 -122c-20 -6 -30 -17.333 -30 -34c0 -2.66699 0.666992 -7.33398 2 -14.001l160 -602c4.66699 -18.667 16 -28 34 -28c6.66699 0 12 0.666992 16 2l180 48l-24 -92c-0.666992 -2 -1 -5 -1 -9
c0 -8.66699 2.83301 -16.667 8.5 -24s12.5 -11.666 20.5 -12.999l406 -110c2.66699 -0.666992 6.33398 -1 11.001 -1c20.667 0 33 9 37 27l150 556c0.666992 2.66699 1 6.33398 1 11.001c0 17.333 -10.333 29 -31 35l-372 100l-66 244c-4 18 -16.333 27 -37 27zM241 127.999
l-144 542l392 104l144 -540zM681 173.999c20 6 30 17 30 33c0 2 -0.666992 6.33301 -2 13l-76 282l298 -82l-132 -492l-340 92l26 102z" />
    <glyph glyph-name="uniE737" unicode="&#xe737;" horiz-adv-x="1030" 
d="M45 30c20 -20 43.333 -30 70 -30h800c27.333 -0 50.833 9.83301 70.5 29.5s29.5 43.167 29.5 70.5v500c0 28 -9.66699 51.667 -29 71s-43 29 -71 29h-800c-27.333 0 -50.833 -9.83301 -70.5 -29.5s-29.5 -43.167 -29.5 -70.5v-500c0 -26.667 10 -50 30 -70zM115 600h800
v-500h-800v500z" />
    <glyph glyph-name="uniE738" unicode="&#xe738;" horiz-adv-x="1011" 
d="M742 735.5c-10 9.66699 -21.667 14.5 -35 14.5h-410c-10 -1.33301 -18.833 -7 -26.5 -17s-11.5 -21 -11.5 -33h498c0 14 -5 25.833 -15 35.5zM855 600c0 14 -5 25.833 -15 35.5s-21.667 14.5 -35 14.5h-608c-10 -1.33301 -18.833 -7 -26.5 -17s-11.5 -21 -11.5 -33v-50
h696v50zM89 500v80l-40 -40l-21 -20c-8 -10.667 -12 -25.667 -12 -45c0 -10 1.66699 -18.333 5 -25l39 -225l39 -225c5.33301 -33.333 25.333 -50 60 -50h710c10.667 2 20.834 7.83301 30.501 17.5s15.5 20.5 17.5 32.5l76 450c2.66699 17.333 4 28.333 4 33
c0 12 -2.83301 22.5 -8.5 31.5s-16.834 20.833 -33.501 35.5l-30 30v-80h-836zM690 240.5c-10 -7 -21 -10.5 -33 -10.5h-300c-32 0 -48 16.667 -48 50v100h68v-80h260v80h70v-100l-2 -14c0 -10 -5 -18.5 -15 -25.5z" />
    <glyph glyph-name="uniE73A" unicode="&#xe73a;" horiz-adv-x="790" 
d="M337.5 524c98.333 -57.333 176.165 -134.998 233.498 -232.998s86 -205 86 -321h118c0 137.333 -34.167 264.166 -102.5 380.499s-160.666 208.666 -276.999 276.999s-243.166 102.5 -380.499 102.5v-120c116.667 0 224.167 -28.667 322.5 -86zM218.499 319.502
c62.333 -36.333 111.667 -85.5 148 -147.5s54.5 -129.333 54.5 -202h118c0 94.667 -23.333 182 -70 262s-110.167 143.333 -190.5 190s-168.166 70 -263.499 70v-118c73.333 0 141.166 -18.167 203.499 -54.5zM15 82.002c0 -30.667 11.3301 -57 33.9971 -79
s49.334 -33 80.001 -33s57.334 11 80.001 33s34 48.333 34 79s-11.167 57.334 -33.5 80.001s-49.166 34 -80.499 34s-58 -11.333 -80 -34c-22.667 -22.667 -34 -49.334 -34 -80.001z" />
    <glyph glyph-name="uniE73C" unicode="&#xe73c;" horiz-adv-x="830" 
d="M516 63l-0.999023 -13c0 -27.333 6.83301 -52.5 20.5 -75.5s32 -41.167 55 -54.5s47.833 -20 74.5 -20s51.5 6.66699 74.5 20s41.333 31.5 55 54.5s20.5 48.167 20.5 75.5s-6.66699 52.5 -20 75.5s-31.5 41.167 -54.5 54.5s-48.167 20 -75.5 20c-36 0 -66 -10 -90 -30
l-262 156c1.33301 9.33301 2 17.333 2 24c0 8 -0.666992 16.667 -2 26l262 156c25.333 -21.333 55.333 -32 90 -32c26.667 0 51.5 6.66699 74.5 20s41.333 31.5 55 54.5s20.5 48.167 20.5 75.5s-6.66699 52.5 -20 75.5s-31.5 41.167 -54.5 54.5s-48.167 20 -75.5 20
c-26.667 0 -51.5 -6.66699 -74.5 -20s-41.333 -31.5 -55 -54.5s-20.5 -48.167 -20.5 -75.5l1 -12l1 -12l-260 -156c-24.667 20 -55.334 30 -92.001 30c-26.667 0 -51.5 -6.66699 -74.5 -20s-41.333 -31.5 -55 -54.5s-20.5 -48.167 -20.5 -75.5s6.83301 -52.5 20.5 -75.5
s32 -41.167 55 -54.5s47.833 -20 74.5 -20c32 0 62.667 10.667 92 32l260 -156z" />
    <glyph glyph-name="uniE73D" unicode="&#xe73d;" horiz-adv-x="930" 
d="M915 420v274h-704v86c0 13.333 -6.66699 20 -20 20h-156c-13.333 0 -20 -6.66699 -20 -20v-80h98l54 -250l54 -250v-76c0 -13.333 6.66699 -20 20 -20h654c13.333 0 20 6.66699 20 20v76h-562c-28.667 0 -43.334 4.33301 -44.001 13v2c0 4 2.66699 7.66699 8 11
c6.66699 4 15.334 7.33301 26.001 10l554 158c12 3.33301 18 12 18 26zM194.5 -70.5c19.667 -19.667 43.167 -29.5 70.5 -29.5c28 0 51.667 9.66699 71 29s29 43 29 71c0 27.333 -9.83301 50.833 -29.5 70.5s-43.167 29.5 -70.5 29.5c-26.667 0 -50 -10 -70 -30
s-30 -43.333 -30 -70c0 -27.333 9.83301 -50.833 29.5 -70.5zM694.5 -70.5c19.667 -19.667 43.167 -29.5 70.5 -29.5c28 0 51.667 9.66699 71 29s29 43 29 71c0 27.333 -9.83301 50.833 -29.5 70.5s-43.167 29.5 -70.5 29.5c-26.667 0 -50 -10 -70 -30s-30 -43.333 -30 -70
c0 -27.333 9.83301 -50.833 29.5 -70.5z" />
    <glyph glyph-name="uniE73E" unicode="&#xe73e;" horiz-adv-x="1030" 
d="M241 410c9.33301 40.667 27.168 77.833 53.501 111.5s58.666 60.167 96.999 79.5s79.5 29 123.5 29c80 0 146 -27.333 198 -82c10.667 -10.667 25 -16 43 -16c17.333 0 31.5 5.5 42.5 16.5s16.5 25.167 16.5 42.5c0 18 -5.33301 32.333 -16 43
c-81.333 77.333 -176 116 -284 116c-58 0 -112.833 -11.833 -164.5 -35.5s-96.5 -56.667 -134.5 -99s-65.667 -90.833 -83 -145.5h-118v-120h160c34.667 0 56.667 20 66 60zM377.002 270.499c14.667 -24.333 34.1689 -43.833 58.502 -58.5s50.833 -22 79.5 -22
s55.167 7.33301 79.5 22s43.833 34.167 58.5 58.5s22 50.833 22 79.5c0 29.333 -7.16699 56.166 -21.5 80.499s-33.833 43.666 -58.5 57.999s-51.334 21.5 -80.001 21.5s-55.334 -7.16699 -80.001 -21.5s-44.167 -33.666 -58.5 -57.999s-21.5 -51.166 -21.5 -80.499
c0 -28.667 7.33301 -55.167 22 -79.5zM789.004 289.999c-9.33301 -40.667 -27.167 -77.832 -53.5 -111.499s-58.666 -60.167 -96.999 -79.5s-79.5 -29 -123.5 -29c-77.333 0 -143.333 27.333 -198 82c-12 12 -26.333 18 -43 18s-30.334 -6 -41.001 -18
c-12 -10.667 -18 -24.334 -18 -41.001s6 -31 18 -43c78.667 -78.667 172.667 -118 282 -118c60 0 115.833 12 167.5 36s96 57.333 133 100s64.167 90.667 81.5 144h118v120h-160c-36 0 -58 -20 -66 -60z" />
    <glyph glyph-name="uniE740" unicode="&#xe740;" horiz-adv-x="930" 
d="M296 770.5c-19.333 -19.667 -29 -43.167 -29 -70.5v-150h98v150h450v-700h-450v100h-98v-100c0 -26.667 9.66699 -50 29 -70s42.333 -30 69 -30h450c27.333 0 50.833 9.83301 70.5 29.5s29.5 43.167 29.5 70.5v700c0 28 -9.66699 51.667 -29 71s-43 29 -71 29h-450
c-26.667 0 -49.667 -9.83301 -69 -29.5zM465 400h-450v-150h450v-120l200 196l-200 194v-120z" />
    <glyph glyph-name="uniE741" unicode="&#xe741;" horiz-adv-x="930" 
d="M44.5 770.5c-19.667 -19.667 -29.5 -43.167 -29.5 -70.5v-700c0 -26.667 10 -50 30 -70s43.333 -30 70 -30h400c27.333 0 50.833 9.83301 70.5 29.5s29.5 43.167 29.5 70.5v100h-98v-100h-402v700h402v-150h98v150c0 28 -9.66699 51.667 -29 71s-43 29 -71 29h-400
c-27.333 0 -50.833 -9.83301 -70.5 -29.5zM267 400v-150h450v-120l198 196l-198 194v-120h-450z" />
    <glyph glyph-name="uniE742" unicode="&#xe742;" horiz-adv-x="926" 
d="M901.5 590c-6.33301 8.66699 -15.166 13.001 -26.499 13.001c-8.66699 0 -19.334 -3.66699 -32.001 -11l-802 -452c-12.667 -6.66699 -20.667 -13.334 -24 -20.001l-2 -8c0 -4 2.66699 -7 8 -9c6 -2 15.333 -3 28 -3h780c21.333 0 40 7.83301 56 23.5s24 34.5 24 56.5
v374c0 15.333 -3.16699 27.333 -9.5 36z" />
    <glyph glyph-name="uniE744" unicode="&#xe744;" horiz-adv-x="822" 
d="M561 402l146 152l100 -124v316h-316l122 -98l-152 -146zM15 -44h316l-122 100l152 146l-100 100l-146 -152l-100 122v-316z" />
    <glyph glyph-name="uniE746" unicode="&#xe746;" horiz-adv-x="930" 
d="M571 750v-294h294l-104 100l154 144l-100 100l-144 -154zM261 56l100 -106v296h-296l106 -100l-156 -146l100 -100z" />
    <glyph glyph-name="uniE74C" unicode="&#xe74c;" horiz-adv-x="830" 
d="M244.5 721c-19.667 -19.333 -29.5 -42.333 -29.5 -69v-402c0 -26.667 10 -50 30 -70s43.333 -30 70 -30h400c27.333 0 50.833 9.83301 70.5 29.5s29.5 43.167 29.5 70.5v400c0 28 -9.66699 51.667 -29 71s-43 29 -71 29h-400c-27.333 0 -50.833 -9.66699 -70.5 -29z
M315 650h400v-400h-400v400zM45 -20c20 -20 43.333 -30 70 -30h300v100h-300v300h-100v-300c0 -26.667 10 -50 30 -70z" />
    <glyph glyph-name="uniE74D" unicode="&#xe74d;" horiz-adv-x="1030" 
d="M45 770c-20 -20 -30 -43.333 -30 -70v-600c0 -27.333 9.83301 -50.833 29.5 -70.5s43.167 -29.5 70.5 -29.5h200v98h-200v462h802v-462h-200v-98h198c28 0 51.667 9.66699 71 29s29 43 29 71v600c0 27.333 -9.83301 50.833 -29.5 70.5s-43.167 29.5 -70.5 29.5h-800
c-26.667 0 -50 -10 -70 -30zM118.5 695.5c7.66699 7 16.5 10.501 26.5 10.501c10.667 0 19.667 -3.33301 27 -10s11 -15.334 11 -26.001c0 -25.333 -12.667 -38 -38 -38c-10.667 0 -19.667 3.66699 -27 11s-11 16.333 -11 27c0 10 3.83301 18.5 11.5 25.5zM218.5 695.501
c7.66699 7 16.5 10.501 26.5 10.501c10.667 0 19.667 -3.33301 27 -10s11 -15.334 11 -26.001c0 -25.333 -12.667 -38 -38 -38c-10.667 0 -19.667 3.66699 -27 11s-11 16.333 -11 27c0 10 3.83301 18.5 11.5 25.5zM315 700.002h602v-62h-602v62zM421 -99.998h184v300h150
l-242 240l-242 -240h150v-300z" />
    <glyph glyph-name="uniE74E" unicode="&#xe74e;" horiz-adv-x="1030" 
d="M45 720c-20 -20 -30 -43.333 -30 -70v-600c0 -27.333 9.83301 -50.833 29.5 -70.5s43.167 -29.5 70.5 -29.5h800c28 0 51.667 9.66699 71 29s29 43 29 71v600c0 27.333 -9.83301 50.833 -29.5 70.5s-43.167 29.5 -70.5 29.5h-800c-26.667 0 -50 -10 -70 -30zM118.5 645.5
c7.66699 7 16.5 10.501 26.5 10.501c10.667 0 19.667 -3.33301 27 -10s11 -15.334 11 -26.001c0 -25.333 -12.667 -38 -38 -38c-10.667 0 -19.667 3.66699 -27 11s-11 16.333 -11 27c0 10 3.83301 18.5 11.5 25.5zM272 646.001c7.33301 -6.66699 11 -15.333 11 -26
c0 -25.333 -12.667 -38 -38 -38c-10.667 0 -19.667 3.66699 -27 11s-11 16.333 -11 27c0 10 3.83301 18.5 11.5 25.5s16.5 10.5 26.5 10.5c10.667 0 19.667 -3.33301 27 -10zM917 650.002v-60h-602v60h602zM115 510.002h802v-460h-802v460z" />
    <glyph glyph-name="uniE74F" unicode="&#xe74f;" horiz-adv-x="490" 
d="M245 850l-230 -364h460zM245 -150l230 366h-460z" />
    <glyph glyph-name="uniE750" unicode="&#xe750;" horiz-adv-x="852" 
d="M755 -61c9.33301 0 17.334 3.33203 24.001 9.99902l49 48c6 8 9 16 9 24c0 10 -3 18.333 -9 25l-185 184c38 55.333 57 118 57 188c0 60.667 -15.167 117.334 -45.5 170.001s-71.833 94.667 -124.5 126s-110 47 -172 47s-119.167 -15.167 -171.5 -45.5
s-93.833 -71.833 -124.5 -124.5s-46 -110.334 -46 -173.001s15.5 -120.167 46.5 -172.5s72.667 -93.666 125 -123.999s109.166 -45.5 170.499 -45.5c68.667 0 131.667 19 189 57l184 -184c6 -6.66699 14 -10 24 -10zM170.001 496.999
c16.667 38 41.5029 68.668 74.5029 92.001s70.833 35 113.5 35c37.333 0 71.666 -9.33301 102.999 -28s56.166 -43.834 74.499 -75.501s27.5 -65.834 27.5 -102.501c0 -28 -5.33301 -55 -16 -81c-17.333 -37.333 -42.333 -67.333 -75 -90s-70.667 -34 -114 -34
c-28.667 0 -55 5.33301 -79 16c-38.667 16.667 -69.334 41.334 -92.001 74.001s-34 71 -34 115c0 24.667 5.66699 51 17 79zM226.004 389c3.33301 -3.33301 7.33301 -5 12 -5h86v-86c0 -10.667 5.66699 -16 17 -16h34c4.66699 0 8.83398 1.5 12.501 4.5
s5.5 6.83301 5.5 11.5v86h85c4.66699 0 8.66699 1.66699 12 5s5 7.66602 5 12.999v33c0 11.333 -5.66699 17 -17 17h-85v86c0 5.33301 -1.83301 9.5 -5.5 12.5s-7.83398 4.5 -12.501 4.5h-34c-11.333 0 -17 -5.66699 -17 -17v-86h-86c-11.333 0 -17 -5.66699 -17 -17v-33
c0 -5.33301 1.66699 -9.66602 5 -12.999z" />
    <glyph glyph-name="uniE751" unicode="&#xe751;" horiz-adv-x="870" 
d="M208 708.5c-53.333 -33.667 -96.834 -77.167 -130.501 -130.5s-54.5 -112 -62.5 -176h368v368c-63.333 -7.33301 -121.666 -27.833 -174.999 -61.5zM473.999 312.5c-10 -9.66699 -21.667 -14.501 -35 -14.501h-424c10 -70 34.667 -133 74 -189
s89.166 -99.833 149.499 -131.5s125.166 -47.5 194.499 -47.5c76.667 0 147.334 19 212.001 57s115.834 89.333 153.501 154s56.5 135 56.5 211c0 70 -16 135.333 -48 196s-76 110.834 -132 150.501s-118 63.5 -186 71.5v-422c0 -14 -5 -25.833 -15 -35.5z" />
    </font>
</defs>
</svg>
